<svg id="Capa_1" enable-background="new 0 0 512 512" height="512" viewBox="0 0 512 512" width="512" xmlns="http://www.w3.org/2000/svg"><g><path d="m323.601 301.067-71.282 26.214c-15.105-5.386-29.294-14.121-41.387-26.214l11.267-101.402z" fill="#7397b8"/><path d="m479.332 190.404-110.663 110.663c-12.101 12.101-26.282 20.829-41.394 26.207l-37.474-37.474 144.464-144.464c18.643-18.643 18.635-48.966 0-67.601v-45.067h45.067c43.557 43.558 43.557 114.179 0 157.736z" fill="#8db3cf"/><path d="m301.067 210.933-22.534 90.135-90.135-90.135 71.282-26.214c15.106 5.385 29.294 14.12 41.387 26.214z" fill="#7397b8"/><path d="m245.732 424.004-55.328 55.328c-43.558 43.558-114.178 43.558-157.736 0v-45.067h45.067c18.635 18.635 48.958 18.643 67.601 0l55.328-55.328h45.067v45.067z" fill="#435d7a"/><path d="m301.068 210.933s-45.068 45.067-45.068 45.067c18.635 18.635 18.635 48.966 0 67.601l-55.335 55.335 45.067 45.067 55.335-55.335c43.558-43.557 43.558-114.178.001-157.735z" fill="#5a7ba0"/><path d="m77.736 434.264-45.067 45.067c-43.558-43.558-43.558-114.178 0-157.736l110.663-110.663c12.101-12.101 26.282-20.829 41.394-26.207l37.474 37.474-144.464 144.464c-18.643 18.643-18.636 48.966 0 67.601z" fill="#7397b8"/><path d="m256 188.399 55.335-55.335v-45.068h-45.067l-55.335 55.335c-43.558 43.558-43.558 114.178 0 157.736 0 0 45.067-45.067 45.067-45.067-18.635-18.635-18.635-48.966 0-67.601z" fill="#8db3cf"/><path d="m479.332 32.668-45.067 45.067c-18.635-18.635-48.958-18.643-67.601 0l-55.328 55.328-45.067-45.067 55.328-55.328c43.556-43.557 114.177-43.557 157.735 0z" fill="#a6cfe7"/></g></svg>