<svg id="_x31__x2C_5" enable-background="new 0 0 24 24" height="512" viewBox="0 0 24 24" width="512" xmlns="http://www.w3.org/2000/svg"><path d="m23.25 4.5v.75h-22.5v-.75c0-1.55 1.26-2.81 2.81-2.81h16.88c1.55 0 2.81 1.26 2.81 2.81z" fill="#607d8b"/><path d="m23.25 5.25v15.87c0 .62-.5 1.13-1.12 1.13h-20.26c-.62 0-1.12-.51-1.12-1.13v-15.87z" fill="#fff"/><path d="m11.5 14.75h-4.75c-.414 0-.75-.336-.75-.75s.336-.75.75-.75h4.75c.414 0 .75.336.75.75s-.336.75-.75.75z"/><path d="m8.75 17c-.206 0-.412-.085-.561-.252l-2-2.25c-.253-.284-.253-.712 0-.996l2-2.25c.277-.311.751-.336 1.059-.062.31.275.338.749.062 1.059l-1.556 1.751 1.557 1.752c.275.31.247.783-.062 1.059-.144.127-.321.189-.499.189z"/><path d="m17.25 14.75h-5.75c-.414 0-.75-.336-.75-.75s.336-.75.75-.75h5.75c.414 0 .75.336.75.75s-.336.75-.75.75z"/><path d="m15.25 17c-.178 0-.355-.062-.498-.189-.31-.275-.338-.749-.062-1.059l1.556-1.752-1.557-1.752c-.275-.31-.247-.783.062-1.059.308-.274.782-.25 1.059.062l2 2.25c.253.284.253.712 0 .996l-2 2.25c-.148.168-.354.253-.56.253z"/><path d="m21.25 23h-18.5c-1.517 0-2.75-1.233-2.75-2.75v-16.5c0-1.517 1.233-2.75 2.75-2.75h18.5c1.517 0 2.75 1.233 2.75 2.75v16.5c0 1.517-1.233 2.75-2.75 2.75zm-18.5-20.5c-.689 0-1.25.561-1.25 1.25v16.5c0 .689.561 1.25 1.25 1.25h18.5c.689 0 1.25-.561 1.25-1.25v-16.5c0-.689-.561-1.25-1.25-1.25z"/><path d="m23.25 6h-22.5c-.414 0-.75-.336-.75-.75s.336-.75.75-.75h22.5c.414 0 .75.336.75.75s-.336.75-.75.75z"/></svg>