<svg id="color" enable-background="new 0 0 24 24" height="512" viewBox="0 0 24 24" width="512" xmlns="http://www.w3.org/2000/svg"><path d="m21 1h-18c-1.654 0-3 1.346-3 3v16c0 1.654 1.346 3 3 3h18c1.654 0 3-1.346 3-3v-16c0-1.654-1.346-3-3-3z" fill="#607d8b"/><path d="m21 21h-18c-.551 0-1-.448-1-1v-14h20v14c0 .552-.449 1-1 1z" fill="#fff"/><g fill="#2196f3"><path d="m16.25 15h-8c-.553 0-1-.448-1-1s.447-1 1-1h8c.553 0 1 .448 1 1s-.447 1-1 1z"/><path d="m14 12v4c0 .404.244.769.617.924.374.155.804.069 1.09-.217l2-2c.391-.391.391-1.023 0-1.414l-2-2c-.286-.286-.716-.372-1.09-.217-.373.155-.617.52-.617.924z"/><path d="m10 12v4c0 .404-.244.769-.617.924-.374.155-.804.069-1.09-.217l-2-2c-.391-.391-.391-1.023 0-1.414l2-2c.286-.286.716-.372 1.09-.217s.617.52.617.924z"/></g><path d="m12 1h-9c-1.654 0-3 1.346-3 3v16c0 1.654 1.346 3 3 3h9v-2h-9c-.551 0-1-.448-1-1v-14h10z" fill="#546d79"/><path d="m12 6h-10v14c0 .552.449 1 1 1h9v-6h-2v1c0 .404-.244.769-.617.924-.124.051-.254.076-.383.076-.26 0-.516-.102-.707-.293l-2-2c-.391-.391-.391-1.023 0-1.414l2-2c.191-.191.447-.293.707-.293.129 0 .259.025.383.076.374.155.617.52.617.924v1h2z" fill="#dedede"/><path d="m12 13h-2v2h2z" fill="#1d83d4"/><path d="m9 11c-.26 0-.516.102-.707.293l-2 2c-.391.391-.391 1.023 0 1.414l2 2c.191.191.447.293.707.293.129 0 .259-.025.383-.076.373-.155.617-.52.617-.924v-1-2-1c0-.404-.243-.769-.617-.924-.124-.051-.254-.076-.383-.076z" fill="#1d83d4"/></svg>