<svg id="Capa_1" enable-background="new 0 0 512 512" height="512" viewBox="0 0 512 512" width="512" xmlns="http://www.w3.org/2000/svg"><g><g><g><path d="m159.34 31.87-37.7 31.865 37.7 31.865 46.9 28.8 49.76-28.8 34.84-31.865-34.84-31.865z" fill="#ffb823"/><path d="m480.13 31.87h-224.13v63.73l112.065 56.16 112.065-56.16z" fill="#ff9100"/></g><g><path d="m159.34 95.6v-63.73c0-17.6-14.27-31.87-31.87-31.87h-127.47v366.4h256l68.89-128.96-68.89-141.84z" fill="#ffde46"/><path d="m256 95.6h256v320.8h-256z" fill="#ffb823"/></g></g><g><path d="m224.13 257.06c-17.6 0-31.86 14.27-31.86 31.87v31.86l31.865 23.07 31.865-23.07 31.865-31.865-31.865-31.865z" fill="#6491fb"/><path d="m224.135 370.62-31.865 13.91v31.87c0 17.6 14.26 31.87 31.86 31.87l17.11 11.93 14.76-11.93 27.24-32.95-27.24-30.79z" fill="#6491fb"/><g><path d="m287.87 512c17.6 0 31.86-14.27 31.86-31.87v-31.86l-31.865-23.83-31.865 23.83-31.865 32.33 31.865 31.4z" fill="#b21970"/><path d="m63.73 384.53h192.27l21.6-32.63-21.6-31.11h-224.13c-17.6 0-31.87 14.27-31.87 31.87v127.47c0 17.6 14.27 31.87 31.87 31.87h224.13v-63.73h-192.27z" fill="#df5e8d"/><path d="m256 384.53 31.865 17.23 31.865-17.23v-31.87c0-17.6-14.26-31.87-31.86-31.87l-16.75-13.17-15.12 13.17z" fill="#b21970"/></g><path d="m480.13 257.06h-224.13v63.73h192.27v63.74h-192.27v63.74h224.13c17.6 0 31.87-14.27 31.87-31.87v-127.47c0-17.6-14.27-31.87-31.87-31.87z" fill="#565cd8"/></g></g></svg>