<svg id="Capa_1" enable-background="new 0 0 511.998 511.998" height="512" viewBox="0 0 511.998 511.998" width="512" xmlns="http://www.w3.org/2000/svg"><g><path d="m454.688 30h28.154v-30h-28.154c-29.814 0-54.323 23.073-56.652 52.298-17.563 6.136-30.2 22.86-30.2 42.489v23.33c0 19.556 12.542 36.23 30.002 42.422v22.163c-17.46 6.192-30.002 22.866-30.002 42.422v23.33c0 19.556 12.542 36.23 30.002 42.422v22.163c-17.46 6.192-30.002 22.866-30.002 42.421v23.33c0 19.556 12.542 36.23 30.002 42.422v3.934c0 13.392-9.854 24.523-22.693 26.527-6.282-17.292-22.876-29.679-42.312-29.679h-23.33c-19.555 0-36.229 12.542-42.421 30.002h-22.164c-6.192-17.46-22.866-30.002-42.421-30.002h-23.33c-19.436 0-36.031 12.386-42.312 29.679-12.838-2.004-22.693-13.136-22.693-26.527v-3.934c17.46-6.192 30.002-22.866 30.002-42.422v-23.33c0-19.556-12.542-36.229-30.002-42.421v-22.163c17.46-6.192 30.002-22.866 30.002-42.422v-23.33c0-19.556-12.542-36.23-30.002-42.422v-22.163c17.46-6.192 30.002-22.866 30.002-42.422v-23.33c0-19.629-12.638-36.353-30.2-42.489-2.33-29.225-26.839-52.298-56.653-52.298h-28.155v30h28.154c13.32 0 24.4 9.75 26.491 22.488-17.274 6.292-29.642 22.878-29.642 42.3v23.33c0 19.556 12.542 36.23 30.002 42.422v22.163c-17.46 6.192-30.002 22.866-30.002 42.422v23.33c0 19.556 12.542 36.23 30.002 42.422v22.163c-17.46 6.192-30.002 22.866-30.002 42.421v23.33c0 19.556 12.542 36.23 30.002 42.422v3.934c0 29.89 23.191 54.448 52.521 56.669 6.141 17.554 22.86 30.183 42.483 30.183h23.33c19.555 0 36.229-12.542 42.421-30.002h22.164c6.192 17.46 22.866 30.002 42.421 30.002h23.33c19.623 0 36.343-12.63 42.483-30.183 29.331-2.221 52.521-26.779 52.521-56.669v-3.934c17.46-6.192 30.002-22.866 30.002-42.422v-23.33c0-19.556-12.542-36.229-30.002-42.421v-22.163c17.46-6.192 30.002-22.866 30.002-42.422v-23.33c0-19.556-12.542-36.23-30.002-42.422v-22.163c17.46-6.192 30.002-22.866 30.002-42.422v-23.33c0-19.422-12.368-36.008-29.642-42.3 2.093-12.738 13.173-22.488 26.493-22.488zm-370.529 64.788c0-8.272 6.729-15.002 15.002-15.002s15.002 6.73 15.002 15.002v23.33c0 8.272-6.729 15.002-15.002 15.002s-15.002-6.73-15.002-15.002zm0 130.336c0-8.272 6.729-15.002 15.002-15.002s15.002 6.73 15.002 15.002v23.33c0 8.272-6.729 15.002-15.002 15.002s-15.002-6.73-15.002-15.002zm0 130.336c0-8.272 6.729-15.001 15.002-15.001s15.002 6.729 15.002 15.001v23.33c0 8.272-6.729 15.002-15.002 15.002s-15.002-6.73-15.002-15.002zm118.337 126.538h-23.33c-8.272 0-15.002-6.73-15.002-15.002s6.729-15.002 15.002-15.002h23.33c8.271 0 15.001 6.73 15.001 15.002s-6.729 15.002-15.001 15.002zm130.336 0h-23.33c-8.271 0-15.001-6.73-15.001-15.002s6.729-15.002 15.001-15.002h23.33c8.272 0 15.002 6.73 15.002 15.002s-6.73 15.002-15.002 15.002zm95.007-103.208c0 8.272-6.729 15.002-15.002 15.002s-15.002-6.73-15.002-15.002v-23.33c0-8.272 6.729-15.001 15.002-15.001s15.002 6.729 15.002 15.001zm0-130.336c0 8.272-6.729 15.002-15.002 15.002s-15.002-6.73-15.002-15.002v-23.33c0-8.272 6.729-15.002 15.002-15.002s15.002 6.73 15.002 15.002zm0-130.337c0 8.272-6.729 15.002-15.002 15.002s-15.002-6.73-15.002-15.002v-23.33c0-8.272 6.729-15.002 15.002-15.002s15.002 6.73 15.002 15.002z" fill="#fd3"/><path d="m454.688 30h28.154v-30h-28.154c-29.814 0-54.323 23.073-56.652 52.298-17.563 6.136-30.2 22.86-30.2 42.489v23.33c0 19.556 12.542 36.23 30.002 42.422v22.163c-17.46 6.192-30.002 22.866-30.002 42.422v23.33c0 19.556 12.542 36.23 30.002 42.422v22.163c-17.46 6.192-30.002 22.866-30.002 42.421v23.33c0 19.556 12.542 36.23 30.002 42.422v3.934c0 13.392-9.854 24.523-22.693 26.527-6.282-17.292-22.876-29.679-42.312-29.679h-23.33c-19.555 0-36.229 12.542-42.421 30.002h-11.082v30h11.082c6.192 17.46 22.866 30.002 42.421 30.002h23.33c19.623 0 36.343-12.63 42.483-30.183 29.331-2.221 52.521-26.779 52.521-56.669v-3.934c17.46-6.192 30.002-22.866 30.002-42.422v-23.33c0-19.556-12.542-36.229-30.002-42.421v-22.163c17.46-6.192 30.002-22.866 30.002-42.422v-23.33c0-19.556-12.542-36.23-30.002-42.422v-22.163c17.46-6.192 30.002-22.866 30.002-42.422v-23.33c0-19.422-12.368-36.008-29.642-42.3 2.091-12.737 13.171-22.487 26.491-22.487zm-121.856 451.998h-23.33c-8.271 0-15.001-6.73-15.001-15.002s6.729-15.002 15.001-15.002h23.33c8.272 0 15.002 6.73 15.002 15.002s-6.73 15.002-15.002 15.002zm95.007-126.538v23.33c0 8.272-6.729 15.002-15.002 15.002s-15.002-6.73-15.002-15.002v-23.33c0-8.272 6.729-15.001 15.002-15.001s15.002 6.729 15.002 15.001zm0-130.336v23.33c0 8.272-6.729 15.002-15.002 15.002s-15.002-6.73-15.002-15.002v-23.33c0-8.272 6.729-15.002 15.002-15.002s15.002 6.73 15.002 15.002zm0-107.007c0 8.272-6.729 15.002-15.002 15.002s-15.002-6.73-15.002-15.002v-23.33c0-8.272 6.729-15.002 15.002-15.002s15.002 6.73 15.002 15.002z" fill="#fb3"/></g></svg>