<?xml version="1.0"?>
<svg xmlns="http://www.w3.org/2000/svg" xmlns:xlink="http://www.w3.org/1999/xlink" xmlns:svgjs="http://svgjs.com/svgjs" version="1.1" width="512" height="512" x="0" y="0" viewBox="0 0 512 512" style="enable-background:new 0 0 512 512" xml:space="preserve" class=""><g>
<g xmlns="http://www.w3.org/2000/svg">
	<path style="" d="M63.986,0v43.845c0,41.009,33.244,74.255,74.255,74.255c41.009,0,74.255-33.244,74.255-74.255V0    M178.548,0v43.846c0,22.226-18.083,40.309-40.309,40.309s-40.31-18.083-40.31-40.309V0" fill="#429685" data-original="#ccd6d8" class=""/>
	<path style="" d="M138.241,140.729c-41.009,0-74.255,33.244-74.255,74.255v77.791   c0,41.01,33.244,74.255,74.255,74.255s74.255-33.244,74.255-74.255v-77.791C212.494,173.974,179.25,140.729,138.241,140.729z    M178.552,292.773c0,22.226-18.083,40.309-40.309,40.309s-40.309-18.083-40.309-40.309v-77.791   c0-22.226,18.083-40.309,40.309-40.309s40.309,18.083,40.309,40.309V292.773z" fill="#429685" data-original="#ccd6d8" class=""/>
	<path style="" d="M212.494,512v-43.845c0-41.009-33.244-74.255-74.255-74.255c-41.009,0-74.255,33.244-74.255,74.255   V512 M97.933,512v-43.846c0-22.226,18.083-40.309,40.309-40.309s40.309,18.083,40.309,40.309V512" fill="#429685" data-original="#ccd6d8" class=""/>
</g>
<g xmlns="http://www.w3.org/2000/svg">
	<path style="" d="M138.241,453.304L138.241,453.304c-8.983,0-16.265-7.282-16.265-16.265V328.132   c0-8.983,7.282-16.265,16.265-16.265l0,0c8.983,0,16.265,7.282,16.265,16.265v108.907   C154.505,446.022,147.223,453.304,138.241,453.304z" fill="#095a4a" data-original="#afbbbc" class=""/>
	<path style="" d="M138.241,200.132L138.241,200.132c-8.983,0-16.265-7.282-16.265-16.265V74.961   c0-8.983,7.282-16.265,16.265-16.265l0,0c8.983,0,16.265,7.282,16.265,16.265v108.907   C154.505,192.851,147.223,200.132,138.241,200.132z" fill="#095a4a" data-original="#afbbbc" class=""/>
</g>
<path xmlns="http://www.w3.org/2000/svg" style="" d="M373.732,268.729c-41.009,0-74.255,33.244-74.255,74.255v77.791c0,41.01,33.244,74.255,74.255,74.255  s74.255-33.244,74.255-74.255v-77.791C447.986,301.974,414.741,268.729,373.732,268.729z M414.043,420.773  c0,22.226-18.083,40.309-40.309,40.309c-22.226,0-40.309-18.083-40.309-40.309v-77.791c0-22.226,18.083-40.309,40.309-40.309  c22.226,0,40.309,18.083,40.309,40.309V420.773z" fill="#429685" data-original="#ccd6d8" class=""/>
<path xmlns="http://www.w3.org/2000/svg" style="" d="M357.467,511.972v-55.839c0-8.983,7.282-16.265,16.265-16.265l0,0  c8.983,0,16.265,7.282,16.265,16.265v55.839" fill="#095a4a" data-original="#afbbbc" class=""/>
<path xmlns="http://www.w3.org/2000/svg" style="" d="M373.76,246.1c41.009,0,74.255-33.244,74.255-74.255v-77.79c0-41.01-33.244-74.255-74.255-74.255  s-74.255,33.244-74.255,74.255v77.791C299.507,212.855,332.751,246.1,373.76,246.1z M333.449,94.055  c0-22.226,18.083-40.309,40.309-40.309c22.226,0,40.309,18.083,40.309,40.309v77.791c0,22.226-18.083,40.309-40.309,40.309  c-22.226,0-40.309-18.083-40.309-40.309V94.055z" fill="#429685" data-original="#ccd6d8" class=""/>
<g xmlns="http://www.w3.org/2000/svg">
	<path style="" d="M373.732,328.132L373.732,328.132c-8.983,0-16.265-7.282-16.265-16.265V202.961   c0-8.983,7.282-16.265,16.265-16.265l0,0c8.983,0,16.265,7.282,16.265,16.265v108.907   C389.997,320.851,382.715,328.132,373.732,328.132z" fill="#095a4a" data-original="#afbbbc" class=""/>
	<path style="" d="M390.025,0.028v58.668c0,8.983-7.282,16.265-16.265,16.265l0,0c-8.983,0-16.265-7.282-16.265-16.265   V0.028" fill="#095a4a" data-original="#afbbbc" class=""/>
</g>
<g xmlns="http://www.w3.org/2000/svg">
</g>
<g xmlns="http://www.w3.org/2000/svg">
</g>
<g xmlns="http://www.w3.org/2000/svg">
</g>
<g xmlns="http://www.w3.org/2000/svg">
</g>
<g xmlns="http://www.w3.org/2000/svg">
</g>
<g xmlns="http://www.w3.org/2000/svg">
</g>
<g xmlns="http://www.w3.org/2000/svg">
</g>
<g xmlns="http://www.w3.org/2000/svg">
</g>
<g xmlns="http://www.w3.org/2000/svg">
</g>
<g xmlns="http://www.w3.org/2000/svg">
</g>
<g xmlns="http://www.w3.org/2000/svg">
</g>
<g xmlns="http://www.w3.org/2000/svg">
</g>
<g xmlns="http://www.w3.org/2000/svg">
</g>
<g xmlns="http://www.w3.org/2000/svg">
</g>
<g xmlns="http://www.w3.org/2000/svg">
</g>
</g></svg>
