<svg id="Capa_1" enable-background="new 0 0 510 510" height="512" viewBox="0 0 510 510" width="512" xmlns="http://www.w3.org/2000/svg"><g id="XMLID_2265_"><g id="XMLID_2270_"><g id="XMLID_2322_"><path id="XMLID_2323_" d="m225.667 120-45 10-30-10v-120h60.001l14.999 60 10 31.333z" fill="#ffe278"/></g><g id="XMLID_2311_"><path id="XMLID_2320_" d="m300.667 120-35.5 10-39.5-10v-60l15-60h60z" fill="#ffc178"/></g><g id="XMLID_2309_"><path id="XMLID_2310_" d="m225.667 60h-15v-60h15l10 31z" fill="#ffc178"/></g><g id="XMLID_2307_"><path id="XMLID_2308_" d="m225.667 0h15v60h-15z" fill="#ff936b"/></g><g id="XMLID_2300_"><path id="XMLID_2305_" d="m225.667 150h-75v-30h75l10 16.25z" fill="#ffc178"/></g><g id="XMLID_2272_"><path id="XMLID_2288_" d="m300.667 150h-75v-30h75z" fill="#ff936b"/></g></g><g id="XMLID_2511_"><path id="XMLID_2512_" d="m450 150h-30v-60h-90v-30h120z" fill="#6b77e8"/></g><g id="XMLID_2509_"><path id="XMLID_2510_" d="m450 450h-120v-30h90v-60h30z" fill="#6b77e8"/></g><g id="XMLID_1852_"><g fill="#5f55af"><path id="XMLID_1876_" d="m0 315h30v-30h30v-30h-30v-30h30v-30h-60z"/><path id="XMLID_2372_" d="m90 195h30v120h-30z"/><path id="XMLID_2373_" d="m150 315h30v-30h30v-30h-30v-30h30v-30h-60z"/></g><path id="XMLID_2498_" d="m240 195v120h90v-120zm60 90h-30v-60h30z" fill="#453d83"/></g><g id="XMLID_2478_"><path id="XMLID_2479_" d="m0 420h120v30h-120z" fill="#979fef"/></g><g id="XMLID_2476_"><path id="XMLID_2477_" d="m0 60h120v30h-120z" fill="#979fef"/></g><g id="XMLID_2266_"><g id="XMLID_2501_"><path id="XMLID_2531_" d="m225.667 480-45 10-30-10v-120h60.001l14.999 60 10 31.333z" fill="#ffe278"/></g><g id="XMLID_2485_"><path id="XMLID_2499_" d="m300.667 480-35.5 10-39.5-10v-60l15-60h60z" fill="#ffc178"/></g><g id="XMLID_2433_"><path id="XMLID_2434_" d="m225.667 420h-15v-60h15l10 31z" fill="#ffc178"/></g><g id="XMLID_2431_"><path id="XMLID_2432_" d="m225.667 360h15v60h-15z" fill="#ff936b"/></g><g id="XMLID_2418_"><path id="XMLID_2429_" d="m225.667 510h-75v-30h75l10 16.25z" fill="#ffc178"/></g><g id="XMLID_2366_"><path id="XMLID_2371_" d="m300.667 510h-75v-30h75z" fill="#ff936b"/></g></g><g id="XMLID_2480_"><g id="XMLID_2549_"><path id="XMLID_2550_" d="m435 300-45 10-30-10v-120h60l15 60 10 31.333z" fill="#ffe278"/></g><g id="XMLID_2542_"><path id="XMLID_2547_" d="m510 300-35.5 10-39.5-10v-60l15-60h60z" fill="#ffc178"/></g><g id="XMLID_2540_"><path id="XMLID_2541_" d="m435 240h-15v-60h15l10 31z" fill="#ffc178"/></g><g id="XMLID_2538_"><path id="XMLID_2539_" d="m435 180h15v60h-15z" fill="#ff936b"/></g><g id="XMLID_2493_"><path id="XMLID_2536_" d="m435 330h-75v-30h75l10 16.25z" fill="#ffc178"/></g><g id="XMLID_2481_"><path id="XMLID_2491_" d="m510 330h-75v-30h75z" fill="#ff936b"/></g></g></g></svg>