<svg height="511pt" viewBox="0 -50 511.99921 511" width="511pt" xmlns="http://www.w3.org/2000/svg"><path d="m512 156.984375c0 55.039063-28.433594 103.429687-71.410156 131.296875-6.480469 4.195312-11.882813 9.839844-15.691406 16.558594-.21875.386718-56.289063 99.464844-56.539063 99.832031-6.011719 9.546875-20.179687 9.335937-25.835937-.636719l-56.152344-99.195312c-3.855469-6.769532-9.179688-12.34375-15.652344-16.535156-43.59375-28.253907-72.234375-77.617188-71.417969-133.617188.855469-59.355469 35.265625-111.011719 85.003907-136.722656 103.011718-53.261719 227.695312 21.625 227.695312 139.019531zm0 0" fill="#7cd2e3"/><path d="m369.058594 156.984375c0 55.039063-28.433594 103.429687-71.410156 131.296875-5.3125 3.433594-9.902344 7.847656-13.480469 13.035156-3.578125-5.175781-8.148438-9.578125-13.449219-13.011718-43.59375-28.253907-72.234375-77.617188-71.417969-133.617188.855469-59.355469 35.265625-111.011719 85.003907-136.722656 50.332031 25.96875 84.753906 78.484375 84.753906 139.019531zm0 0" fill="#44bfd7"/><path d="m471.089844 156.796875c0 63.84375-51.78125 115.457031-115.453125 115.457031-63.757813 0-115.445313-51.6875-115.445313-115.457031 0-71.59375 64.582032-125.871094 134.859375-113.800781 54.511719 9.222656 96.039063 56.667968 96.039063 113.800781zm0 0" fill="#44bfd7"/><path d="m322.898438 46.074219c-47.503907 14.042969-82.707032 58.011719-82.707032 110.722656 0 52.503906 35.023438 96.804687 82.988282 110.828125 28.347656-28.296875 45.878906-67.425781 45.878906-110.640625 0-43.351563-17.65625-82.59375-46.160156-110.910156zm0 0" fill="#269ab1"/><path d="m312.71875 156.988281c0 55.039063-28.441406 103.429688-71.417969 131.289063-6.476562 4.199218-11.882812 9.847656-15.6875 16.558594-.25.441406-56.25 99.425781-56.542969 99.835937-6.007812 9.546875-20.179687 9.335937-25.828124-.636719l-56.152344-99.199218c-3.796875-6.710938-9.191406-12.347657-15.65625-16.535157-43.59375-28.25-72.230469-77.613281-71.417969-133.613281 1.207031-84.191406 69.921875-152.871094 154.113281-154.042969 87.515625-1.164062 158.589844 69.355469 158.589844 156.34375zm0 0" fill="#7cd2e3"/><path d="m312.71875 156.988281c0 55.039063-28.441406 103.429688-71.417969 131.289063-6.476562 4.199218-11.882812 9.847656-15.6875 16.558594l-48.171875 85.109374-48.179687-85.109374c-3.796875-6.710938-9.191407-12.347657-15.65625-16.535157-43.601563-28.25-72.242188-77.613281-71.425781-133.613281 1.117187-77.824219 59.925781-142.398438 135.320312-152.625 76.351562 10.304688 135.21875 75.75 135.21875 154.925781zm0 0" fill="#a6e0ec"/><path d="m271.804688 156.796875c0 63.84375-51.78125 115.457031-115.453126 115.457031-63.757812 0-115.445312-51.6875-115.445312-115.457031 0-71.59375 64.582031-125.871094 134.859375-113.800781 54.515625 9.222656 96.039063 56.667968 96.039063 113.800781zm0 0" fill="#269ab1"/><path d="m271.804688 156.796875c0 57.160156-41.535157 104.605469-96.046876 113.828125-54.511718-9.234375-96.039062-56.679688-96.039062-113.828125 0-57.132813 41.527344-104.578125 96.046875-113.800781 54.515625 9.222656 96.039063 56.667968 96.039063 113.800781zm0 0" fill="#44bfd7"/></svg>