<svg id="icons" enable-background="new 0 0 64 64" height="512" viewBox="0 0 64 64" width="512" xmlns="http://www.w3.org/2000/svg"><path d="m47 34.99v8c0 2.21-1.79 4-4 4h-22c-2.21 0-4-1.79-4-4v-8c0 2.21 1.79 4 4 4h22c2.21 0 4-1.79 4-4z" fill="#d7e9ff"/><path d="m43 30.99c2.21 0 4 1.79 4 4s-1.79 4-4 4h-22c-2.21 0-4-1.79-4-4s1.79-4 4-4z" fill="#fff"/><path d="m47 42.99v8.01c0 2.2-1.79 4-4 4v-.01h-22c-2.21 0-4-1.79-4-4v-8c0 2.21 1.79 4 4 4h22c2.21 0 4-1.79 4-4z" fill="#d7e9ff"/><path d="m47 58.99v.01c0 2.21-1.79 4-4 4v-.01h-22c-2.21 0-4-1.79-4-4v-8c0 2.21 1.79 4 4 4h22v.01c2.21 0 4-1.8 4-4z" fill="#d7e9ff"/><path d="m43.01 19h11.98c1.66 0 3-1.34 3-3v5.99.01c0 1.66-1.34 3-3 3h-11.98c-1.66 0-3-1.34-3-3v-.01-5.99c0 1.66 1.34 3 3 3z" fill="#d7e9ff"/><path d="m57.99 4v6c0 1.66-1.34 3-3 3h-11.98c-1.66 0-3-1.34-3-3v-6c0 1.66 1.34 3 3 3h11.98c1.66 0 3-1.34 3-3z" fill="#d7e9ff"/><path d="m43.01 13h11.98c1.66 0 3-1.34 3-3v6c0 1.66-1.34 3-3 3h-11.98c-1.66 0-3-1.34-3-3v-6c0 1.66 1.34 3 3 3z" fill="#d7e9ff"/><path d="m54.99 1c1.66 0 3 1.341 3 3 0 1.66-1.34 3-3 3h-11.98c-1.66 0-3-1.34-3-3 0-1.659 1.34-3 3-3z" fill="#fff"/><path d="m24 4v6c0 1.66-1.35 3-3.01 3h-11.98c-1.66 0-3-1.34-3-3v-6c0 1.66 1.34 3 3 3h11.98c1.66 0 3.01-1.34 3.01-3z" fill="#d7e9ff"/><path d="m9.01 19h11.98c1.66 0 3.01-1.34 3.01-3v5.99.01c0 1.66-1.35 3-3.01 3h-11.98c-1.66 0-3-1.34-3-3v-.01-5.99c0 1.66 1.34 3 3 3z" fill="#d7e9ff"/><path d="m9.01 13h11.98c1.66 0 3.01-1.34 3.01-3v6c0 1.66-1.35 3-3.01 3h-11.98c-1.66 0-3-1.34-3-3v-6c0 1.66 1.34 3 3 3z" fill="#d7e9ff"/><path d="m20.99 1c1.66 0 3.01 1.341 3.01 3 0 1.66-1.35 3-3.01 3h-11.98c-1.66 0-3-1.34-3-3 0-1.659 1.34-3 3-3z" fill="#fff"/><g fill="#116fff"><path d="m21 39.99c-2.757 0-5-2.243-5-5s2.243-5 5-5c.553 0 1 .447 1 1s-.447 1-1 1c-1.654 0-3 1.346-3 3s1.346 3 3 3c.553 0 1 .447 1 1s-.447 1-1 1z"/><path d="m42.998 39.993c-.553 0-1-.447-1-1s.447-1 1-1c1.654 0 3-1.346 3-3s-1.346-3-3-3c-.553 0-1-.447-1-1s.447-1 1-1c2.757 0 5 2.243 5 5s-2.243 5-5 5z"/><path d="m43.002 39.989h-22.004c-.553 0-1-.447-1-1s.447-1 1-1h22.004c.553 0 1 .447 1 1s-.447 1-1 1z"/><path d="m21 47.992c-2.757 0-5-2.243-5-5 0-.553.447-1 1-1s1 .447 1 1c0 1.654 1.346 3 3 3 .553 0 1 .447 1 1s-.447 1-1 1z"/><path d="m42.998 47.995c-.553 0-1-.447-1-1s.447-1 1-1c1.654 0 3-1.346 3-3 0-.553.447-1 1-1s1 .447 1 1c0 2.757-2.243 5-5 5z"/><path d="m43.002 47.991h-22.004c-.553 0-1-.447-1-1s.447-1 1-1h22.004c.553 0 1 .447 1 1s-.447 1-1 1z"/><path d="m21 55.994c-2.757 0-5-2.243-5-5 0-.553.447-1 1-1s1 .447 1 1c0 1.654 1.346 3 3 3 .553 0 1 .447 1 1s-.447 1-1 1z"/><path d="m42.998 55.997c-.553 0-1-.447-1-1s.447-1 1-1c1.654 0 3-1.346 3-3 0-.553.447-1 1-1s1 .447 1 1c0 2.757-2.243 5-5 5z"/><path d="m43.002 55.993h-22.004c-.553 0-1-.447-1-1s.447-1 1-1h22.004c.553 0 1 .447 1 1s-.447 1-1 1z"/><path d="m21 63.996c-2.757 0-5-2.243-5-5 0-.553.447-1 1-1s1 .447 1 1c0 1.654 1.346 3 3 3 .553 0 1 .447 1 1s-.447 1-1 1z"/><path d="m42.998 63.999c-.553 0-1-.447-1-1s.447-1 1-1c1.654 0 3-1.346 3-3 0-.553.447-1 1-1s1 .447 1 1c0 2.757-2.243 5-5 5z"/><path d="m43.002 63.995h-22.004c-.553 0-1-.447-1-1s.447-1 1-1h22.004c.553 0 1 .447 1 1s-.447 1-1 1z"/><path d="m43.002 31.993h-22.004c-.553 0-1-.447-1-1s.447-1 1-1h22.004c.553 0 1 .447 1 1s-.447 1-1 1z"/><path d="m17 59.987c-.553 0-1-.447-1-1v-23.996c0-.553.447-1 1-1s1 .447 1 1v23.996c0 .553-.447 1-1 1z"/><path d="m47 59.987c-.553 0-1-.447-1-1v-23.996c0-.553.447-1 1-1s1 .447 1 1v23.996c0 .553-.447 1-1 1z"/><path d="m9.008 8c-2.206 0-4-1.794-4-4 0-2.205 1.794-3.999 4-3.999.553 0 1 .447 1 1s-.447 1-1 1c-1.103 0-2 .896-2 1.999s.897 2 2 2c.553 0 1 .447 1 1s-.447 1-1 1z"/><path d="m20.992 8.005c-.553 0-1-.447-1-1s.447-1 1-1c1.104 0 2.002-.898 2.002-2.002s-.898-2.002-2.002-2.002c-.553 0-1-.447-1-1s.447-1 1-1c2.207 0 4.002 1.795 4.002 4.002s-1.795 4.002-4.002 4.002z"/><path d="m20.992 7.997h-11.98c-.553 0-1-.447-1-1s.447-1 1-1h11.98c.553 0 1 .447 1 1s-.447 1-1 1z"/><path d="m9.008 14c-2.206 0-4-1.794-4-4 0-.553.447-1 1-1s1 .447 1 1c0 1.103.897 2 2 2 .553 0 1 .447 1 1s-.447 1-1 1z"/><path d="m20.992 14.005c-.553 0-1-.447-1-1s.447-1 1-1c1.104 0 2.002-.898 2.002-2.002 0-.553.447-1 1-1s1 .447 1 1c0 2.207-1.795 4.002-4.002 4.002z"/><path d="m20.992 13.997h-11.98c-.553 0-1-.447-1-1s.447-1 1-1h11.98c.553 0 1 .447 1 1s-.447 1-1 1z"/><path d="m9.008 20c-2.206 0-4-1.794-4-4 0-.553.447-1 1-1s1 .447 1 1c0 1.103.897 2 2 2 .553 0 1 .447 1 1s-.447 1-1 1z"/><path d="m20.992 20.005c-.553 0-1-.447-1-1s.447-1 1-1c1.104 0 2.002-.898 2.002-2.002 0-.553.447-1 1-1s1 .447 1 1c0 2.207-1.795 4.002-4.002 4.002z"/><path d="m20.992 19.997h-11.98c-.553 0-1-.447-1-1s.447-1 1-1h11.98c.553 0 1 .447 1 1s-.447 1-1 1z"/><path d="m9.008 26c-2.206 0-4-1.794-4-4 0-.553.447-1 1-1s1 .447 1 1c0 1.103.897 2 2 2 .553 0 1 .447 1 1s-.447 1-1 1z"/><path d="m20.992 26.005c-.553 0-1-.447-1-1s.447-1 1-1c1.104 0 2.002-.898 2.002-2.002 0-.553.447-1 1-1s1 .447 1 1c0 2.207-1.795 4.002-4.002 4.002z"/><path d="m20.992 25.997h-11.98c-.553 0-1-.447-1-1s.447-1 1-1h11.98c.553 0 1 .447 1 1s-.447 1-1 1z"/><path d="m20.992 2.003h-11.98c-.553 0-1-.447-1-1s.447-1 1-1h11.98c.553 0 1 .447 1 1s-.447 1-1 1z"/><path d="m6.008 22.99c-.553 0-1-.447-1-1v-17.99c0-.553.447-1 1-1s1 .447 1 1v17.99c0 .553-.447 1-1 1z"/><path d="m23.996 22.99c-.553 0-1-.447-1-1v-17.987c0-.553.447-1 1-1s1 .447 1 1v17.987c0 .553-.447 1-1 1z"/><path d="m43.004 8c-2.206 0-4-1.794-4-4 0-2.205 1.794-3.999 4-3.999.553 0 1 .447 1 1s-.447 1-1 1c-1.103 0-2 .896-2 1.999s.897 2 2 2c.553 0 1 .447 1 1s-.447 1-1 1z"/><path d="m54.988 8.005c-.553 0-1-.447-1-1s.447-1 1-1c1.104 0 2.002-.898 2.002-2.002s-.898-2.002-2.002-2.002c-.553 0-1-.447-1-1s.447-1 1-1c2.207 0 4.002 1.795 4.002 4.002s-1.795 4.002-4.002 4.002z"/><path d="m54.988 7.997h-11.98c-.553 0-1-.447-1-1s.447-1 1-1h11.98c.553 0 1 .447 1 1s-.447 1-1 1z"/><path d="m43.004 14c-2.206 0-4-1.794-4-4 0-.553.447-1 1-1s1 .447 1 1c0 1.103.897 2 2 2 .553 0 1 .447 1 1s-.447 1-1 1z"/><path d="m54.988 14.005c-.553 0-1-.447-1-1s.447-1 1-1c1.104 0 2.002-.898 2.002-2.002 0-.553.447-1 1-1s1 .447 1 1c0 2.207-1.795 4.002-4.002 4.002z"/><path d="m54.988 13.997h-11.98c-.553 0-1-.447-1-1s.447-1 1-1h11.98c.553 0 1 .447 1 1s-.447 1-1 1z"/><path d="m43.004 20c-2.206 0-4-1.794-4-4 0-.553.447-1 1-1s1 .447 1 1c0 1.103.897 2 2 2 .553 0 1 .447 1 1s-.447 1-1 1z"/><path d="m54.988 20.005c-.553 0-1-.447-1-1s.447-1 1-1c1.104 0 2.002-.898 2.002-2.002 0-.553.447-1 1-1s1 .447 1 1c0 2.207-1.795 4.002-4.002 4.002z"/><path d="m54.988 19.997h-11.98c-.553 0-1-.447-1-1s.447-1 1-1h11.98c.553 0 1 .447 1 1s-.447 1-1 1z"/><path d="m43.004 26c-2.206 0-4-1.794-4-4 0-.553.447-1 1-1s1 .447 1 1c0 1.103.897 2 2 2 .553 0 1 .447 1 1s-.447 1-1 1z"/><path d="m54.988 26.005c-.553 0-1-.447-1-1s.447-1 1-1c1.104 0 2.002-.898 2.002-2.002 0-.553.447-1 1-1s1 .447 1 1c0 2.207-1.795 4.002-4.002 4.002z"/><path d="m54.988 25.997h-11.98c-.553 0-1-.447-1-1s.447-1 1-1h11.98c.553 0 1 .447 1 1s-.447 1-1 1z"/><path d="m54.988 2.003h-11.98c-.553 0-1-.447-1-1s.447-1 1-1h11.98c.553 0 1 .447 1 1s-.447 1-1 1z"/><path d="m40.004 22.99c-.553 0-1-.447-1-1v-17.99c0-.553.447-1 1-1s1 .447 1 1v17.99c0 .553-.447 1-1 1z"/><path d="m57.992 22.99c-.553 0-1-.447-1-1v-17.987c0-.553.447-1 1-1s1 .447 1 1v17.987c0 .553-.447 1-1 1z"/><path d="m36.997 14.005h-9.994c-.553 0-1-.447-1-1s.447-1 1-1h9.994c.553 0 1 .447 1 1s-.447 1-1 1z"/><path d="m32 27.992c-.553 0-1-.447-1-1v-13.987c0-.553.447-1 1-1s1 .447 1 1v13.987c0 .553-.447 1-1 1z"/><path d="m32 27.992c-.256 0-.512-.098-.707-.293-.391-.391-.391-1.023 0-1.414l2.996-2.996c.391-.391 1.023-.391 1.414 0s.391 1.023 0 1.414l-2.996 2.996c-.195.196-.451.293-.707.293z"/><path d="m32 27.992c-.256 0-.512-.098-.707-.293l-2.996-2.996c-.391-.391-.391-1.023 0-1.414s1.023-.391 1.414 0l2.996 2.996c.391.391.391 1.023 0 1.414-.195.196-.451.293-.707.293z"/></g></svg>