<svg height="512" viewBox="0 0 128 128" width="512" xmlns="http://www.w3.org/2000/svg"><g><path d="m60 34.88h-10.592l14.592 17.591 14.592-17.591h-10.592v-21.068h-8z" fill="#80ecc6"/><g fill="#ffd830"><path d="m49.408 54.75a1.743 1.743 0 0 1 -1.3-.582l-8.408-9.375a1.75 1.75 0 1 1 2.6-2.336l8.407 9.375a1.749 1.749 0 0 1 -1.3 2.918z"/><path d="m43 59.375a1.734 1.734 0 0 1 -.853-.223l-6.25-3.5a1.75 1.75 0 0 1 1.703-3.052l6.25 3.5a1.75 1.75 0 0 1 -.85 3.275z"/><path d="m78.592 54.75a1.75 1.75 0 0 1 -1.3-2.918l8.408-9.375a1.75 1.75 0 0 1 2.6 2.336l-8.4 9.375a1.742 1.742 0 0 1 -1.308.582z"/><path d="m85 59.375a1.75 1.75 0 0 1 -.858-3.277l6.25-3.5a1.75 1.75 0 1 1 1.711 3.054l-6.25 3.5a1.734 1.734 0 0 1 -.853.223z"/></g><g><path d="m105.844 67.407a20.379 20.379 0 0 0 -17.575 10.067 26.432 26.432 0 0 1 0 20.678 20.4 20.4 0 1 0 17.575-30.745z" fill="#4d5680"/><path d="m22.155 67.407a20.378 20.378 0 0 1 17.575 10.067 26.443 26.443 0 0 0 0 20.678 20.4 20.4 0 1 1 -17.575-30.745z" fill="#4d5680"/><path d="m110.858 93.579h-10.027a8.774 8.774 0 0 0 -8.774 8.774v.5a20.4 20.4 0 0 0 27.575 0v-.5a8.775 8.775 0 0 0 -8.774-8.774z" fill="#ffd830"/><path d="m105.844 87.111a5.17 5.17 0 0 1 -5.17-5.17v-2.041a5.17 5.17 0 0 1 5.17-5.17 5.171 5.171 0 0 1 5.171 5.17v2.037a5.17 5.17 0 0 1 -5.171 5.174z" fill="#ffd9b3"/><path d="m17.142 93.579h10.027a8.775 8.775 0 0 1 8.774 8.774v.5a20.4 20.4 0 0 1 -27.575 0v-.5a8.774 8.774 0 0 1 8.774-8.774z" fill="#80ecc6"/><path d="m22.155 87.111a5.17 5.17 0 0 0 5.171-5.17v-2.041a5.171 5.171 0 0 0 -5.171-5.17 5.17 5.17 0 0 0 -5.17 5.17v2.037a5.17 5.17 0 0 0 5.17 5.174z" fill="#ffd9b3"/><circle cx="64" cy="87.813" fill="#f3f5f9" r="26.375"/><path d="m70.48 92.679h-12.96a11.341 11.341 0 0 0 -11.34 11.341v3.234a26.365 26.365 0 0 0 35.64 0v-3.234a11.341 11.341 0 0 0 -11.34-11.341z" fill="#4d5680"/><path d="m64 86.906a6.683 6.683 0 0 1 -6.683-6.683v-2.632a6.683 6.683 0 0 1 6.683-6.683 6.683 6.683 0 0 1 6.683 6.683v2.632a6.683 6.683 0 0 1 -6.683 6.683z" fill="#ffd9b3"/></g></g></svg>