<svg id="flat" height="512" viewBox="0 0 512 512" width="512" xmlns="http://www.w3.org/2000/svg"><path d="m496.292 496h-56l-40.19-28.71-71.81-51.29 64.52-67.3 54.8 35.46 48.39 31.31z" fill="#ffceb6"/><path d="m496.292 496h-56l-40.19-28.71 47.51-83.13 48.39 31.31z" fill="#ed6445"/><path d="m296.2918 439.47076h-256.2918a16 16 0 0 1 -16-16v-208a16 16 0 0 1 16-16h240a16 16 0 0 1 16 16z" fill="#f7c04a"/><path d="m256.292 399.471h-192.292v-160l192.292.529z" fill="#f5a431"/><circle cx="224" cy="319.471" fill="#407de6" r="80"/><path d="m56 199.47076v-72.00011a103.9999 103.9999 0 0 1 103.9999-103.99989h.0002a103.9999 103.9999 0 0 1 103.9999 103.99989v72.00011h-40v-72.00007a63.99993 63.99993 0 0 0 -63.99994-63.99993h-.00012a63.99993 63.99993 0 0 0 -63.99994 63.99993v72.00007z" fill="#cad8ed"/><path d="m56 143.471h40v16h-40z" fill="#a6bce3"/><path d="m296 351.471 144 104-24 32-144-104z" fill="#b36f42"/><path d="m208 239.471h16v32h-16z" fill="#4e96ed"/><path d="m232 399.4707h-16v-28.68652l-21.65723-21.65674 11.31446-11.31344 24 24a8.00035 8.00035 0 0 1 2.34277 5.6567z" fill="#4e96ed"/><path d="m248 343.471h16v47.999h-16z" fill="#4e96ed"/><circle cx="216" cy="287.471" fill="#407de6" r="16"/><path d="m216 311.4707a24 24 0 1 1 24-24 24.02718 24.02718 0 0 1 -24 24zm0-32a8 8 0 1 0 8 8 8.00917 8.00917 0 0 0 -8-8z" fill="#7ab8f5"/><circle cx="256" cy="335.471" fill="#407de6" r="16"/><path d="m256 359.4707a24 24 0 1 1 24-24 24.02718 24.02718 0 0 1 -24 24zm0-32a8 8 0 1 0 8 8 8.00917 8.00917 0 0 0 -8-8z" fill="#7ab8f5"/><circle cx="192" cy="335.471" fill="#407de6" r="16"/><path d="m192 359.4707a24 24 0 1 1 24-24 24.02718 24.02718 0 0 1 -24 24zm0-32a8 8 0 1 0 8 8 8.00917 8.00917 0 0 0 -8-8z" fill="#7ab8f5"/><path d="m224 407.4707a88 88 0 1 1 88-88 88.09957 88.09957 0 0 1 -88 88zm0-160a72 72 0 1 0 72 72 72.08156 72.08156 0 0 0 -72-72z" fill="#e4e9f2"/><g fill="#ffceb6"><rect height="33.941" rx="16.971" transform="matrix(.707 -.707 .707 .707 -212.056 342.992)" width="45.255" x="285.373" y="410.5"/><rect height="33.941" rx="16.971" transform="matrix(.707 -.707 .707 .707 -213.997 370.306)" width="45.255" x="317.373" y="426.5"/><rect height="33.941" rx="16.971" transform="matrix(.707 -.707 .707 .707 -207.939 400.933)" width="45.255" x="357.373" y="434.5"/></g><path d="m401.657 429.814a24.95729 24.95729 0 0 0 -34.82422-.46655 25.00877 25.00877 0 0 0 -31.03809-13.46948 24.97606 24.97606 0 0 0 -41.45117-10.06445l-.001.00048-8 8a24.98084 24.98084 0 0 0 25.87848 41.24435 24.95143 24.95143 0 0 0 40.95532 10.527 24.9642 24.9642 0 0 0 40.48072 7.54211l7.999-7.99951a24.97027 24.97027 0 0 0 .001-35.314zm-97.65723 10.62745a8.97071 8.97071 0 0 1 -6.34277-15.314l8-8-.001.00049a8.97055 8.97055 0 1 1 12.68652 12.686l-8 8a8.9103 8.9103 0 0 1 -6.34271 2.62747zm38.34281 13.37255a8.97038 8.97038 0 0 1 -12.68558-12.68656l8-8-.001.00049a8.97055 8.97055 0 1 1 12.68652 12.686zm48 0-8 8a8.97038 8.97038 0 0 1 -12.68558-12.68656l8-8-.001.00049a8.97055 8.97055 0 1 1 12.68652 12.686z" fill="#ffb089"/><path d="m400.29182 353.54193-7.4836-4.84233a44.71331 44.71331 0 0 0 -58.23945 8.44093l-14.25788 16.63419a16.85759 16.85759 0 0 0 -1.22713 20.32168 16.85758 16.85758 0 0 0 22.69952 5.10436l26.21672-15.73h16z" fill="#ffceb6"/><path d="m333.11309 409.61572a24.86943 24.86943 0 0 1 -18.876-41.04736l9.726-10.82307a7.99807 7.99807 0 0 1 11.15407-.72663 7.99807 7.99807 0 0 1 .74385 11.41847l-9.47545 10.54431a8.857 8.857 0 0 0 11.28125 13.35937l26.2168-15.73a8.00063 8.00063 0 0 1 4.11628-1.14014h8.00187a7.99806 7.99806 0 0 1 7.99806 7.99806v.00388a7.99806 7.99806 0 0 1 -7.99806 7.99806h-5.78612l-24.3164 14.58985a24.79629 24.79629 0 0 1 -12.78615 3.5552z" fill="#ffb089"/></svg>