<svg id="Layer_1" enable-background="new 0 0 512 512" height="512" viewBox="0 0 512 512" width="512" xmlns="http://www.w3.org/2000/svg"><g><g><path d="m256 480c-59.833 0-116.084-23.3-158.393-65.608-42.307-42.308-65.607-98.559-65.607-158.392s23.3-116.084 65.607-158.392c42.309-42.308 98.56-65.608 158.393-65.608s116.084 23.3 158.393 65.608c42.307 42.308 65.607 98.559 65.607 158.392s-23.3 116.084-65.607 158.392c-42.309 42.308-98.56 65.608-158.393 65.608z" fill="#46508c"/></g><path d="m256 16c-132.548 0-240 107.452-240 240s107.452 240 240 240 240-107.452 240-240-107.452-240-240-240zm80.953 48.333c24.765 10.475 47.012 25.477 66.125 44.589 10.74 10.739 20.18 22.469 28.25 35.078h-90.409c-7.681-36.322-18.978-67.122-32.696-89.4 9.767 2.527 19.358 5.768 28.73 9.733zm-119.124 33.846c14.726-36.816 30.896-50.179 38.171-50.179s23.445 13.363 38.171 50.179c5.473 13.681 10.158 29.026 13.999 45.821h-104.34c3.841-16.796 8.526-32.14 13.999-45.821zm-108.907 10.743c19.113-19.113 41.36-34.115 66.125-44.589 9.373-3.964 18.963-7.206 28.73-9.733-13.719 22.278-25.015 53.078-32.696 89.4h-90.409c8.069-12.609 17.51-24.339 28.25-35.078zm-44.978 67.075c.019 0 .037.003.056.003h384c.019 0 .037-.003.056-.003 10.573 25.347 15.944 52.255 15.944 80.003s-5.371 54.656-15.944 80.003c-.019 0-.037-.003-.056-.003h-384c-.019 0-.037.003-.056.003-10.573-25.347-15.944-52.255-15.944-80.003s5.371-54.656 15.944-80.003zm111.103 271.67c-24.765-10.475-47.012-25.477-66.125-44.589-10.74-10.739-20.18-22.469-28.25-35.078h90.415c7.679 36.319 18.972 67.123 32.69 89.4-9.767-2.527-19.358-5.768-28.73-9.733zm80.953 16.333c-7.275 0-23.445-13.363-38.171-50.179-5.473-13.681-10.158-29.026-13.999-45.821h104.34c-3.842 16.796-8.527 32.14-13.999 45.821-14.726 36.816-30.896 50.179-38.171 50.179zm147.078-60.922c-19.113 19.113-41.36 34.115-66.125 44.589-9.373 3.964-18.963 7.206-28.73 9.733 13.718-22.277 25.011-53.081 32.69-89.4h90.415c-8.069 12.609-17.51 24.339-28.25 35.078z" fill="#5f78be"/><g fill="#73cddc"><path d="m112 216c4.411 0 8 3.589 8 8 0 4.418 3.582 8 8 8s8-3.582 8-8c0-13.234-10.767-24-24-24s-24 10.766-24 24v9.373c0 6.411 2.497 12.438 7.029 16.97l22.628 22.628c1.511 1.511 2.343 3.52 2.343 5.656v9.373c0 4.411-3.589 8-8 8s-8-3.589-8-8c0-4.418-3.582-8-8-8s-8 3.582-8 8c0 13.234 10.767 24 24 24s24-10.766 24-24v-9.373c0-6.411-2.497-12.438-7.029-16.97l-22.628-22.628c-1.511-1.511-2.343-3.52-2.343-5.656v-9.373c0-4.411 3.589-8 8-8z"/><path d="m234.667 200c-4.418 0-8 3.582-8 8v80c0 4.411-3.589 8-8 8s-8-3.589-8-8v-80c0-4.418-3.582-8-8-8s-8 3.582-8 8v80c0 4.411-3.589 8-8 8s-8-3.589-8-8v-80c0-4.418-3.582-8-8-8s-8 3.582-8 8v80c0 13.234 10.767 24 24 24 6.141 0 11.751-2.318 16-6.126 4.249 3.808 9.859 6.126 16 6.126 13.233 0 24-10.766 24-24v-80c0-4.418-3.582-8-8-8z"/><path d="m280 200c-4.418 0-8 3.582-8 8v96c0 4.418 3.582 8 8 8s8-3.582 8-8v-96c0-4.418-3.582-8-8-8z"/><path d="m344 216h16c4.418 0 8-3.582 8-8s-3.582-8-8-8h-16c-13.233 0-24 10.766-24 24v80c0 4.418 3.582 8 8 8s8-3.582 8-8v-56h24c4.418 0 8-3.582 8-8s-3.582-8-8-8h-24v-8c0-4.411 3.589-8 8-8z"/><path d="m418.667 200h-32c-4.418 0-8 3.582-8 8s3.582 8 8 8h8v88c0 4.418 3.582 8 8 8s8-3.582 8-8v-88h8c4.418 0 8-3.582 8-8s-3.582-8-8-8z"/><circle cx="149.333" cy="304" r="8"/><circle cx="256" cy="304" r="8"/><circle cx="304" cy="304" r="8"/><circle cx="352" cy="304" r="8"/></g></g></svg>