<?xml version="1.0" standalone="no"?>
<!DOCTYPE svg PUBLIC "-//W3C//DTD SVG 1.0//EN" "http://www.w3.org/TR/2001/REC-SVG-20010904/DTD/svg10.dtd">
<svg xmlns="http://www.w3.org/2000/svg" xmlns:xlink="http://www.w3.org/1999/xlink" id="body_1" width="667" height="667">

<defs>
    <clipPath  id="1">

    <path id=""  clip-rule="evenodd" transform="matrix(1 0 0 1 0 0)"  d="M0 0L500 0L500 0L500 500L500 500L3.0616172E-14 500L3.0616172E-14 500L0 0z" />    </clipPath>
</defs>

<g transform="matrix(1.3333 0 0 1.3333 0 0)">
	<g clip-path="url(#1)" >
    <path id=""  transform="matrix(1 0 0 -1 0 500)"  d="M125.00391 156.24216L125.00391 156.24216L125.00391 156.24216L125.00391 156.24216L125.00391 156.24216L125.00391 203.11569L125.00391 203.11569L125.00391 203.11569L125.00391 203.11569L374.9961 203.11569L374.9961 203.11569L374.9961 203.11569L374.9961 203.11569L374.9961 156.24216L374.9961 156.24216L374.9961 156.24216C 374.9961 149.92987 378.8085 144.2113 384.65207 141.80508L384.65207 141.80508L384.65207 141.80508C 390.49564 139.3989 397.21417 140.74261 401.68277 145.18L401.68277 145.18L495.42987 238.9271C 501.5234 245.02063 501.5234 254.92657 495.42987 261.02014L495.42987 261.02014L401.68277 354.7672C 397.18292 359.2671 390.49564 360.61078 384.65207 358.17337L384.65207 358.17337L384.65207 358.17337C 378.8085 355.76718 374.9961 350.0486 374.9961 343.73633L374.9961 343.73633L374.9961 343.73633L374.9961 343.73633L374.9961 296.8628L374.9961 296.8628L374.9961 296.8628L374.9961 296.8628L125.00391 296.8628L125.00391 296.8628L125.00391 296.8628L125.00391 296.8628L125.00391 343.73633L125.00391 343.73633L125.00391 343.73633C 125.00391 350.0486 121.19153 355.76718 115.34799 358.17337L115.34799 358.17337L115.34799 358.17337C 109.504395 360.61078 102.78586 359.2671 98.31729 354.79846L98.31729 354.79846L4.5701904 261.0514C -1.523346 254.95786 -1.523346 245.05191 4.5701904 238.95834L4.5701904 238.95834L98.31729 145.21124C 102.78589 140.74261 109.504456 139.39893 115.34799 141.83633L115.34799 141.83633L115.34799 141.83633C 121.19153 144.27371 125.00391 149.92987 125.00391 156.24216z" stroke="#FFFFFF" stroke-width="1.3020427" fill="#F44336" fill-rule="nonzero" />
	</g>
</g>
</svg>