<svg height="512" viewBox="0 0 60 60" width="512" xmlns="http://www.w3.org/2000/svg"><g id="Icons"><path d="m23.03 54.72-6.15 2.85a4.57 4.57 0 0 1 -6.47-4.65l1.43-12.54a4.509 4.509 0 0 0 -1.16-3.57l-8.49-9.34a4.556 4.556 0 0 1 2.47-7.53l12.2-2.48a4.568 4.568 0 0 0 3.08-2.26l6.06-10.85a4.582 4.582 0 0 1 8 0l6.06 10.85a4.568 4.568 0 0 0 3.08 2.26l12.2 2.48a4.556 4.556 0 0 1 2.47 7.53l-8.49 9.34a4.509 4.509 0 0 0 -1.16 3.57l1.43 12.54a4.57 4.57 0 0 1 -6.47 4.65l-6.15-2.85z" fill="#f0c419"/><path d="m30 34.84c1.619 0 1.575 0 6.3-1.594l.141-.046c3.646-1.148 6.823 2.874 5.058 6.3-1.441 2.8-4.642 6.5-11.499 6.5s-10.058-3.7-11.5-6.5c-1.765-3.428 1.412-7.45 5.058-6.3l.141.046c4.726 1.594 4.682 1.594 6.301 1.594z" fill="#3f5c6c"/><path d="m30 59a7.808 7.808 0 0 1 -7.81-7.78 8.013 8.013 0 0 1 .24-1.92l2.19-8.79a1.992 1.992 0 0 1 1.94-1.51h6.88a1.992 1.992 0 0 1 1.94 1.51l2.19 8.79a7.8 7.8 0 0 1 -7.57 9.7z" fill="#ff5364"/><path d="m24 19c1.084 0 2 .687 2 1.5a1 1 0 0 0 2 0 3.62 3.62 0 0 0 -3-3.376v-1.124a1 1 0 0 0 -2 0v1.124a3.62 3.62 0 0 0 -3 3.376 3.779 3.779 0 0 0 4 3.5c1.084 0 2 .687 2 1.5s-.916 1.5-2 1.5-2-.687-2-1.5a1 1 0 0 0 -2 0 3.62 3.62 0 0 0 3 3.376v.124a1 1 0 0 0 2 0v-.124a3.62 3.62 0 0 0 3-3.376 3.779 3.779 0 0 0 -4-3.5c-1.084 0-2-.687-2-1.5s.916-1.5 2-1.5z" fill="#e57e25"/><path d="m36 22c-1.084 0-2-.687-2-1.5s.916-1.5 2-1.5 2 .687 2 1.5a1 1 0 0 0 2 0 3.62 3.62 0 0 0 -3-3.376v-1.124a1 1 0 0 0 -2 0v1.124a3.62 3.62 0 0 0 -3 3.376 3.779 3.779 0 0 0 4 3.5c1.084 0 2 .687 2 1.5s-.916 1.5-2 1.5-2-.687-2-1.5a1 1 0 0 0 -2 0 3.62 3.62 0 0 0 3 3.376v.124a1 1 0 0 0 2 0v-.124a3.62 3.62 0 0 0 3-3.376 3.779 3.779 0 0 0 -4-3.5z" fill="#e57e25"/><path d="m30 48c-1.084 0-2-.687-2-1.5s.916-1.5 2-1.5 2 .687 2 1.5a1 1 0 0 0 2 0 3.62 3.62 0 0 0 -3-3.376v-1.124a1 1 0 0 0 -2 0v1.124a3.62 3.62 0 0 0 -3 3.376 3.779 3.779 0 0 0 4 3.5c1.084 0 2 .687 2 1.5s-.916 1.5-2 1.5-2-.687-2-1.5a1 1 0 0 0 -2 0 3.62 3.62 0 0 0 3 3.376v.124a1 1 0 0 0 2 0v-.124a3.62 3.62 0 0 0 3-3.376 3.779 3.779 0 0 0 -4-3.5z" fill="#802d40"/></g></svg>