<svg id="Capa_1" enable-background="new 0 0 511.588 511.588" height="512" viewBox="0 0 511.588 511.588" width="512" xmlns="http://www.w3.org/2000/svg"><g><path d="m287.795 154.893h-64.004c-8.284 0-15-6.716-15-15s6.716-15 15-15h64.004c8.284 0 15 6.716 15 15s-6.716 15-15 15z" fill="#ffda2d"/><path d="m310.962 298.01c-2.655 0-5.346-.706-7.783-2.188-7.075-4.306-9.321-13.535-5.016-20.611l31.277-51.4c4.307-7.076 13.532-9.324 20.612-5.017 7.077 4.306 9.322 13.535 5.017 20.611l-31.277 51.4c-2.824 4.642-7.766 7.205-12.83 7.205z" fill="#febf01"/><path d="m200.623 298.01c-5.064 0-10.004-2.563-12.829-7.205l-31.276-51.4c-4.306-7.077-2.06-16.305 5.018-20.611 7.077-4.306 16.305-2.06 20.61 5.017l31.277 51.4c4.305 7.077 2.06 16.305-5.018 20.611-2.434 1.482-5.126 2.188-7.782 2.188z" fill="#ffda2d"/><path d="m287.795 124.893h-32.003v30h32.003c8.284 0 15-6.716 15-15s-6.716-15-15-15z" fill="#febf01"/><path d="m504.088 66.63-104.397-60.273c-4.641-2.68-10.359-2.68-15 0l-104.396 60.273c-4.641 2.679-7.5 7.631-7.5 12.99v120.546c0 5.359 2.859 10.311 7.5 12.99l104.397 60.273c2.319 1.34 4.91 2.01 7.5 2.01s5.18-.67 7.5-2.01l104.396-60.273c4.64-2.679 7.5-7.631 7.5-12.99v-120.546c0-5.359-2.86-10.311-7.5-12.99z" fill="#a6d12d"/><path d="m392.19 199.054c-18.396 0-34.184-13.726-36.724-31.927-.236-1.694-.357-3.428-.357-5.152 0-8.284 6.715-15 15-15 8.284 0 15 6.716 15 15 0 .34.023.678.068 1.004.482 3.464 3.498 6.075 7.012 6.075 3.904 0 7.081-3.176 7.081-7.079 0-3.905-3.177-7.082-7.081-7.082-8.284 0-15-6.716-15-15s6.716-15 15-15c3.904 0 7.081-3.176 7.081-7.08s-3.177-7.08-7.081-7.08c-3.377 0-6.299 2.395-6.947 5.693-1.6 8.13-9.49 13.427-17.611 11.826-8.129-1.598-13.424-9.482-11.826-17.611 3.406-17.329 18.708-29.907 36.385-29.907 20.446 0 37.081 16.634 37.081 37.08 0 8.265-2.719 15.908-7.309 22.081 4.591 6.172 7.309 13.816 7.309 22.081 0 20.444-16.634 37.078-37.081 37.078z" fill="#d8eaef"/><path d="m231.291 66.63-104.399-60.274c-4.641-2.68-10.359-2.68-15 0l-104.392 60.274c-4.642 2.68-7.5 7.631-7.5 12.99v120.546c0 5.359 2.858 10.31 7.5 12.99l104.392 60.274c2.32 1.34 4.91 2.01 7.5 2.01s5.18-.67 7.5-2.01l104.399-60.274c4.641-2.679 7.5-7.631 7.5-12.99v-120.546c0-5.359-2.859-10.311-7.5-12.99z" fill="#5f77af"/><path d="m115.114 199.167c-17.465 0-18.877-.472-20.859-1.134-4.764-1.586-8.487-5.369-9.949-10.117-2.461-7.995 1.331-12.959 7.069-20.473 4.386-5.742 12.548-16.428 26.237-35.989 4.276-6.112 6.037-10.375 6.75-13.012l.164-1.284c-.352-3.651-3.438-6.515-7.18-6.515-3.438 0-6.413 2.438-7.073 5.797-1.597 8.129-9.487 13.424-17.609 11.828-8.13-1.597-13.425-9.481-11.828-17.61 3.416-17.392 18.771-30.015 36.511-30.015 20.52 0 37.213 16.692 37.213 37.211 0 .637.087 3.234-.819 6.746-1.76 7.595-5.538 15.463-11.55 24.055-5.775 8.253-10.599 14.974-14.589 20.438 5.058-.035 10.353-.086 15.446-.15.064-.001.128-.001.192-.001 8.196 0 14.892 6.592 14.995 14.812.104 8.283-6.526 15.083-14.811 15.188-12.455.155-21.576.225-28.31.225z" fill="#dff8ff"/><path d="m367.69 298.432-104.396-60.273c-4.641-2.68-10.359-2.679-15 0l-104.398 60.274c-4.641 2.679-7.5 7.631-7.5 12.99v120.545c0 5.359 2.859 10.311 7.5 12.99l104.398 60.274c2.32 1.34 4.91 2.01 7.5 2.01s5.18-.67 7.5-2.01l104.396-60.274c4.641-2.679 7.5-7.631 7.5-12.99v-120.546c0-5.359-2.859-10.311-7.5-12.99z" fill="#4bb6ff"/><path d="m367.69 298.432-104.396-60.273c-2.32-1.34-4.912-2.01-7.502-2.01v271.093h.002c2.59 0 5.18-.67 7.5-2.01l104.396-60.274c4.641-2.679 7.5-7.631 7.5-12.99v-120.546c0-5.359-2.859-10.311-7.5-12.99z" fill="#398ce9"/><path d="m255.794 432.716c-8.284 0-15-6.716-15-15v-73.042h-3.823c-8.284 0-15-6.716-15-15s6.716-15 15-15h18.823c8.283 0 15 6.716 15 15v88.042c0 8.284-6.717 15-15 15z" fill="#dff8ff"/><path d="m255.794 314.675h-.002v118.042h.002c8.283 0 15-6.716 15-15v-88.042c0-8.285-6.717-15-15-15z" fill="#d8eaef"/></g></svg>