<svg height="512pt" viewBox="-35 0 511 512" width="512pt" xmlns="http://www.w3.org/2000/svg"><path d="m393.746094 223.558594c6.945312-12.976563 10.890625-27.796875 10.890625-43.542969 0-50.671875-40.769531-91.796875-91.292969-92.410156-2.515625-48.808594-42.882812-87.605469-92.3125-87.605469-49.433594 0-89.796875 38.796875-92.316406 87.605469-50.519532.613281-91.292969 41.738281-91.292969 92.410156 0 15.746094 3.949219 30.566406 10.894531 43.542969-28.503906 15.746094-47.816406 46.089844-47.816406 80.957031 0 51.054687 41.386719 92.441406 92.441406 92.441406h256.179688c51.050781 0 92.441406-41.386719 92.441406-92.441406 0-34.867187-19.3125-65.210937-47.816406-80.957031zm0 0" fill="#ff9216"/><path d="m221.035156 0c-29.410156 0-53.421875 38.804688-54.914062 87.605469-30.050782.617187-54.296875 41.738281-54.296875 92.410156 0 15.746094 2.347656 30.5625 6.476562 43.539063-16.957031 15.746093-28.441406 46.09375-28.441406 80.960937 0 51.058594 24.617187 92.441406 54.980469 92.441406h-51.898438c-51.058594 0-92.441406-41.382812-92.441406-92.441406 0-34.867187 19.308594-65.214844 47.808594-80.960937-6.9375-12.976563-10.886719-27.792969-10.886719-43.539063 0-50.671875 40.769531-91.792969 91.292969-92.410156 2.519531-48.800781 42.878906-87.605469 92.320312-87.605469zm0 0" fill="#e8590c"/><path d="m303.347656 268.460938c-4.667968-10.554688-17.007812-15.328126-27.5625-10.660157l-33.03125 14.609375v-63.503906c0-11.539062-9.355468-20.894531-20.894531-20.894531h-.003906c-11.539063 0-20.894531 9.355469-20.894531 20.894531v63.503906l-33.03125-14.609375c-10.554688-4.667969-22.894532.105469-27.5625 10.660157-4.667969 10.550781.101562 22.890624 10.65625 27.558593l49.9375 22.089844v193.890625h41.792968v-193.890625l49.9375-22.089844c10.550782-4.667969 15.324219-17.007812 10.65625-27.558593zm0 0" fill="#936a60"/><path d="m242.753906 280.035156 50.074219-22.148437c-5.226563-2.355469-11.386719-2.585938-17.042969-.085938l-33.03125 14.609375zm0 0" fill="#7c4242"/><path d="m168.261719 296.019531c-10.554688-4.667969-15.324219-17.007812-10.65625-27.558593 2.164062-4.898438 5.992187-8.53125 10.519531-10.574219l-.195312-.085938c-10.554688-4.667969-22.894532.105469-27.5625 10.660157-4.667969 10.550781.101562 22.890624 10.65625 27.558593l49.9375 22.089844v193.890625h17.238281v-193.890625zm0 0" fill="#7c4242"/><path d="m218.199219 280.035156v-71.125c0-8.464844 5.042969-15.738281 12.277343-19.019531-2.628906-1.195313-5.542968-1.875-8.617187-1.875h-.003906c-11.539063 0-20.894531 9.355469-20.894531 20.894531v63.503906zm0 0" fill="#7c4242"/><g fill="#e8590c"><path d="m313.796875 186.96875c-2.007813 0-4.011719-.765625-5.542969-2.292969-3.058594-3.0625-3.058594-8.023437 0-11.082031l19.589844-19.589844c3.058594-3.058594 8.023438-3.058594 11.082031 0 3.058594 3.0625 3.058594 8.023438 0 11.082032l-19.589843 19.589843c-1.53125 1.527344-3.535157 2.292969-5.539063 2.292969zm0 0"/><path d="m376.480469 315.472656c-2.003907 0-4.011719-.765625-5.542969-2.296875-3.058594-3.058593-3.058594-8.019531 0-11.078125l19.589844-19.589844c3.0625-3.0625 8.023437-3.0625 11.082031 0 3.058594 3.058594 3.058594 8.023438 0 11.082032l-19.589844 19.585937c-1.527343 1.53125-3.535156 2.296875-5.539062 2.296875zm0 0"/><path d="m125.742188 165.03125c-2.003907 0-4.011719-.765625-5.539063-2.296875-3.0625-3.058594-3.0625-8.023437 0-11.082031l19.585937-19.585938c3.0625-3.0625 8.023438-3.0625 11.082032 0 3.0625 3.058594 3.0625 8.019532 0 11.078125l-19.589844 19.589844c-1.527344 1.53125-3.53125 2.296875-5.539062 2.296875zm0 0"/><path d="m172.753906 151.964844c-2.003906 0-4.007812-.765625-5.539062-2.292969-3.058594-3.0625-3.058594-8.023437 0-11.082031l19.589844-19.589844c3.058593-3.058594 8.019531-3.058594 11.082031 0 3.058593 3.0625 3.058593 8.023438 0 11.082031l-19.589844 19.589844c-1.53125 1.527344-3.535156 2.292969-5.542969 2.292969zm0 0"/><path d="m96.75 360.132812c-2.003906 0-4.007812-.761718-5.539062-2.292968-3.058594-3.0625-3.058594-8.023438 0-11.082032l19.589843-19.589843c3.058594-3.058594 8.019531-3.058594 11.078125 0 3.0625 3.0625 3.0625 8.023437 0 11.082031l-19.585937 19.589844c-1.53125 1.53125-3.535157 2.292968-5.542969 2.292968zm0 0"/></g></svg>