<?xml version="1.0"?>
<svg xmlns="http://www.w3.org/2000/svg" xmlns:xlink="http://www.w3.org/1999/xlink" xmlns:svgjs="http://svgjs.com/svgjs" version="1.1" width="512" height="512" x="0" y="0" viewBox="0 0 512 512" style="enable-background:new 0 0 512 512" xml:space="preserve" class=""><g><g xmlns="http://www.w3.org/2000/svg"><g><g><g><path d="m194.78 250.711h122.479v251.289h-122.479z" fill="#654d54" data-original="#654d54" style="" class=""/><path d="m255.954 250.711h61.305v251.289h-61.305z" fill="#523e45" data-original="#523e45" style="" class=""/></g><g><g><path d="m256.02 409.616c-8.284 0-15-6.716-15-15v-120c0-8.284 6.716-15 15-15s15 6.716 15 15v120c0 8.284-6.716 15-15 15z" fill="#81626b" data-original="#81626b" style="" class=""/><path d="m256.02 259.616c-.022 0-.043.003-.065.003v149.993c.022 0 .043.003.065.003 8.284 0 15-6.716 15-15v-120c0-8.283-6.716-14.999-15-14.999z" fill="#654d54" data-original="#654d54" style="" class=""/></g><g><path d="m241.02 497v-42.384c0-8.284 6.716-15 15-15s15 6.716 15 15v42.384c0 8.284-30 8.284-30 0z" fill="#81626b" data-original="#81626b" style="" class=""/><path d="m256.02 439.616c-.022 0-.043.003-.065.003v63.592c7.522.012 15.065-2.058 15.065-6.212v-42.384c0-8.283-6.716-14.999-15-14.999z" fill="#654d54" data-original="#654d54" style="" class=""/></g></g></g><g><g><path d="m511.6 203.448c0-29.216-20.058-53.869-47.527-61.723 2.684-8.639 4.142-17.794 4.142-27.283 0-52.113-43.507-94.359-97.176-94.359-18.371 0-35.549 4.954-50.202 13.556-11.872-20.093-34.167-33.639-59.734-33.639-27.219 0-50.742 15.343-61.913 37.605-9.275-10.71-23.17-17.522-38.709-17.522-27.924 0-50.562 21.981-50.562 49.096 0 2.514.197 4.983.572 7.396-38.854 3.057-69.41 34.621-69.41 73.136 0 9.533 1.892 18.631 5.297 26.987-25.519 2.493-45.44 23.41-45.44 48.846 0 19.263 11.431 35.925 28.06 43.966-7.95 11.62-12.591 25.56-12.591 40.556 0 40.538 33.844 73.401 75.592 73.401 29.349 0 54.772-16.252 67.296-39.983 8.274 5.26 18.158 8.329 28.786 8.329 14.497 0 27.623-5.693 37.142-14.9 10.191 25.768 35.901 44.067 66.026 44.067 32.224 0 59.395-20.936 67.923-49.558 14.371 12.67 33.454 20.391 54.394 20.391 44.706 0 80.946-35.19 80.946-78.6 0-8.045-1.251-15.804-3.563-23.113 12.712-11.726 20.651-28.284 20.651-46.652z" fill="#82d157" data-original="#82d157" style="" class=""/><path d="m511.6 203.448c0-29.216-20.058-53.869-47.527-61.723 2.684-8.639 4.142-17.794 4.142-27.283 0-52.113-43.507-94.359-97.176-94.359-18.372 0-35.549 4.954-50.202 13.556-11.872-20.093-34.167-33.639-59.734-33.639-1.732 0-3.449.064-5.148.186v371.624c10.387 5.826 22.435 9.169 35.295 9.169 32.224 0 59.395-20.936 67.923-49.558 14.371 12.67 33.454 20.391 54.394 20.391 44.706 0 80.946-35.19 80.946-78.6 0-8.045-1.251-15.804-3.563-23.113 12.711-11.725 20.65-28.283 20.65-46.651z" fill="#6eb771" data-original="#6eb771" style="" class=""/></g><g><ellipse cx="219.491" cy="132.43" fill="#ff0000" rx="31.867" ry="31.867" transform="matrix(.707 -.707 .707 .707 -29.355 193.991)" data-original="#f4da90" style="" class=""/><circle cx="346.65" cy="224.133" fill="#000000" r="31.867" data-original="#e7aa60" style="" class=""/><ellipse cx="441.775" cy="58.127" fill="#000000" rx="31.867" ry="31.867" transform="matrix(.707 -.707 .707 .707 88.291 329.407)" data-original="#e7aa60" style="" class=""/><circle cx="138.821" cy="240.066" fill="#ff0000" r="31.867" data-original="#f4da90" style="" class=""/><circle cx="455.162" cy="325.128" fill="#000000" r="31.867" data-original="#e7aa60" style="" class=""/></g></g></g><g><path d="m496.509 512h-481.109c-8.284 0-15-6.716-15-15s6.716-15 15-15h481.108c8.284 0 15 6.716 15 15s-6.715 15-14.999 15z" fill="#c3f463" data-original="#c3f463" style="" class=""/><path d="m496.509 482h-240.555v30h240.554c8.284 0 15-6.716 15-15s-6.715-15-14.999-15z" fill="#82d157" data-original="#82d157" style="" class=""/></g></g></g></svg>
