<svg width="1760" height="1801" xmlns="http://www.w3.org/2000/svg" xmlns:xlink="http://www.w3.org/1999/xlink" overflow="hidden"><defs><clipPath id="clip0"><rect x="1320" y="358" width="1760" height="1801"/></clipPath><clipPath id="clip1"><rect x="1320" y="357" width="1760" height="1761"/></clipPath><clipPath id="clip2"><rect x="1320" y="357" width="1760" height="1761"/></clipPath><clipPath id="clip3"><rect x="1320" y="357" width="1760" height="1761"/></clipPath></defs><g clip-path="url(#clip0)" transform="translate(-1320 -358)"><g clip-path="url(#clip1)"><g clip-path="url(#clip2)"><g clip-path="url(#clip3)"><path d="M2200 873.625C2057.8 873.625 1942.19 757.963 1942.19 615.812 1942.19 473.661 2057.8 358 2200 358 2342.2 358 2457.81 473.661 2457.81 615.812 2457.81 757.963 2342.2 873.625 2200 873.625Z" fill="#E296C8"/><path d="M1354.55 1830.97C1283.71 1707.99 1325.05 1550.35 1448.91 1478.79 1571.87 1407.74 1729.88 1450.04 1801.08 1573.16 1872.19 1696.32 1829.79 1854.28 1706.72 1925.33 1583.11 1996.71 1425.72 1954.17 1354.55 1830.97Z" fill="#E296C8"/><path d="M2693.28 1925.33C2570.22 1854.28 2527.82 1696.32 2598.82 1573.16 2669.82 1450.14 2827.83 1407.69 2951.09 1478.79 3074.97 1550.36 3116.35 1708.08 3045.36 1830.97 2975.1 1952.94 2817.95 1997.31 2693.28 1925.33Z" fill="#CA75AD"/><path d="M1530.69 1303.61 1427.77 1297.97C1441.17 1054.06 1571.48 828.267 1776.32 693.923L1832.92 780.128C1655.27 896.601 1542.38 1092.33 1530.69 1303.61Z" fill="#E296C8"/><path d="M2869.31 1303.61C2857.62 1092.33 2744.73 896.601 2567.08 780.132L2623.68 693.926C2828.52 828.271 2958.83 1054.06 2972.23 1297.97Z" fill="#CA75AD"/><path d="M2200 2118C2077.34 2118 1960.01 2090.1 1851.35 2035.17L1897.87 1943.12C2086.2 2038.39 2313.8 2038.39 2502.12 1943.12L2548.65 2035.17C2439.99 2090.1 2322.66 2118 2200 2118Z" fill="#E296C8"/><path d="M2548.65 2035.17 2502.13 1943.12C2407.96 1990.75 2303.98 2014.57 2200 2014.57L2200 2118C2322.66 2118 2439.99 2090.1 2548.65 2035.17Z" fill="#CA75AD"/><path d="M2457.81 615.812C2457.81 473.661 2342.2 358 2200 358L2200 873.625C2342.2 873.625 2457.81 757.963 2457.81 615.812Z" fill="#CA75AD"/></g></g></g><path d="M3056.84 1179.56 2943.06 1429.08 2782.97 1206.42Z" fill="#CA75AD" fill-rule="evenodd"/><path d="M1915.08 2158.35 1780.23 1919.55 2054.47 1921.08Z" fill="#E296C8" fill-rule="evenodd"/><path d="M1636.81 721.268 1906.68 672.491 1815.02 930.96Z" fill="#E296C8" fill-rule="evenodd"/></g></svg>