<svg width="2403" height="2147" xmlns="http://www.w3.org/2000/svg" xmlns:xlink="http://www.w3.org/1999/xlink" overflow="hidden"><defs><clipPath id="clip0"><rect x="121" y="80" width="2403" height="2147"/></clipPath></defs><g clip-path="url(#clip0)" transform="translate(-121 -80)"><path d="M1486.72 746C1326.28 745.883 1196.12 875.619 1196 1035.78 1195.88 1195.95 1325.84 1325.88 1486.28 1326 1646.72 1326.12 1776.88 1196.38 1777 1036.22 1777 1036.08 1777 1035.92 1777 1035.78 1776.87 875.783 1646.98 746.117 1486.72 746Z" fill="#385723" fill-rule="evenodd"/><path d="M2332.5 80.0001C2226.74 80.0001 2141 165.733 2141 271.494 2141 377.255 2226.73 463 2332.5 463 2438.26 463 2524 377.267 2524 271.506 2523.88 165.792 2438.21 80.1174 2332.5 80.0001Z" fill="#2F5597" fill-rule="evenodd"/><path d="M2247.49 1674.01C2094.79 1674.01 1971 1797.8 1971 1950.51 1971 2103.22 2094.79 2227 2247.51 2227 2400.21 2227 2524 2103.2 2524 1950.5 2524 1950.43 2524 1950.36 2524 1950.28 2524 1797.69 2400.31 1674 2247.72 1674 2247.65 1674.01 2247.56 1674.01 2247.49 1674.01Z" fill="#FCD462" fill-rule="evenodd"/><path d="M336.229 874C217.488 873.883 121.129 970.042 121 1088.78 120.871 1207.52 217.042 1303.88 335.783 1304 454.524 1304.12 550.883 1207.96 551 1089.22 551 1089.15 551 1089.08 551 1088.99 551.012 970.347 454.888 874.117 336.229 874Z" fill="#C00000" fill-rule="evenodd"/><path d="M594.164 1060.75 979.226 1033.75 985.034 1116.58 599.972 1143.58Z" fill="#767171" fill-rule="evenodd"/><path d="M934.298 1210.5 913.34 937.063 1161.09 1054.65Z" fill="#767171" fill-rule="evenodd"/><path d="M1712.9 729.452 2021.13 497.073 2071.11 563.374 1762.89 795.752Z" fill="#767171" fill-rule="evenodd"/><path d="M2079.72 669.777 1913.21 451.873 2185.03 415.541Z" fill="#767171" fill-rule="evenodd"/><path d="M1970.76 1751.19 1732.45 1447.53 1797.76 1396.27 2036.08 1699.93Z" fill="#767171" fill-rule="evenodd"/><path d="M1903.98 1385.6 1689.35 1556.31 1647.75 1285.24Z" fill="#767171" fill-rule="evenodd"/><path d="M1010.22 1692C891.477 1691.88 795.117 1788.04 795 1906.78 794.883 2025.51 891.042 2121.87 1009.78 2122 1128.52 2122.12 1224.88 2025.96 1225 1907.22 1225 1907.08 1225 1906.93 1225 1906.79 1225 1788.16 1128.84 1692 1010.22 1692Z" fill="#993366" fill-rule="evenodd"/><path d="M462.769 1323.31 707.498 1621.82 643.287 1674.47 398.557 1375.95Z" fill="#767171" fill-rule="evenodd"/><path d="M537.322 1687.4 748.27 1512.15 795.633 1782.28Z" fill="#767171" fill-rule="evenodd"/><path d="M1329.18 1888.4 1714.83 1905.09 1711.23 1988.04 1325.59 1971.35Z" fill="#767171" fill-rule="evenodd"/><path d="M1650.21 2075.63 1660.29 1801.58 1893.17 1946.41Z" fill="#767171" fill-rule="evenodd"/></g></svg>