<svg id="Capa_1" enable-background="new 0 0 512 512" height="512" viewBox="0 0 512 512" width="512" xmlns="http://www.w3.org/2000/svg"><g><g id="Connect_2_"><g><g><path d="m256 150c-41.367 0-75-33.647-75-75s33.633-75 75-75 75 33.647 75 75-33.633 75-75 75z" fill="#b7e65c"/></g><g><path d="m10.05 428.5c-20.607-35.775-8.582-81.635 27.45-102.451 35.772-20.669 81.739-8.364 102.452 27.451 20.684 35.83 8.35 81.782-27.452 102.451-35.96 20.764-81.746 8.388-102.45-27.451z" fill="#b7e65c"/></g><g><path d="m399.5 455.951c-35.801-20.669-48.135-66.621-27.48-102.451 20.654-35.786 66.621-48.135 102.48-27.451 36.036 20.818 48.074 66.703 27.422 102.451-20.439 35.483-66.156 48.391-102.422 27.451z" fill="#85cc3d"/></g></g><g><path d="m61.293 275.087-29.941-1.641c3.896-70.957 41.807-136.641 101.396-175.723l16.465 25.078c-51.68 33.883-84.522 90.821-87.92 152.286z" fill="#c9e6b8"/></g><g><path d="m450.707 275.087c-3.398-61.465-36.24-118.403-87.92-152.285l16.465-25.078c59.59 39.082 97.5 104.766 101.396 175.723z" fill="#a4cca4"/></g><g><path d="m256 512c-35.684 0-69.814-8.115-101.426-24.097l13.535-26.777c54.785 27.715 120.996 27.715 175.781 0l13.535 26.777c-31.611 15.982-65.741 24.097-101.425 24.097z" fill="#c9e6b8"/></g></g><path d="m357.426 487.903-13.535-26.777c-27.393 13.857-57.642 20.786-87.891 20.786v30.088c35.684 0 69.814-8.115 101.426-24.097z" fill="#a4cca4"/><path d="m331 75c0-41.353-33.633-75-75-75v150c41.367 0 75-33.647 75-75z" fill="#85cc3d"/></g></svg>