<svg width="1495" height="1413" xmlns="http://www.w3.org/2000/svg" xmlns:xlink="http://www.w3.org/1999/xlink" overflow="hidden"><defs><clipPath id="clip0"><rect x="1850" y="627" width="1495" height="1413"/></clipPath></defs><g clip-path="url(#clip0)" transform="translate(-1850 -627)"><path d="M2252 952.5C2252 772.731 2391.46 627 2563.5 627 2735.54 627 2875 772.731 2875 952.5 2875 1132.27 2735.54 1278 2563.5 1278 2391.46 1278 2252 1132.27 2252 952.5Z" fill="#FF9999" fill-rule="evenodd"/><text fill="#FFFFFF" font-family="Arial Black,Arial Black_MSFontService,sans-serif" font-weight="900" font-size="275" transform="matrix(1 0 0 1 2471.84 1046)">2</text><path d="M0 0 308.902 595.773" stroke="#FF9999" stroke-width="58.4375" stroke-miterlimit="8" fill="#FF9999" fill-rule="evenodd" transform="matrix(-1 0 0 1 2405.9 1090)"/><path d="M2723 1098 2954.83 1693.77" stroke="#FF9999" stroke-width="58.4375" stroke-miterlimit="8" fill="#FF9999" fill-rule="evenodd"/><path d="M1850 1710C1850 1530.51 1989.46 1385 2161.5 1385 2333.54 1385 2473 1530.51 2473 1710 2473 1889.49 2333.54 2035 2161.5 2035 1989.46 2035 1850 1889.49 1850 1710Z" fill="#FF9999" fill-rule="evenodd"/><text fill="#FFFFFF" font-family="Arial Black,Arial Black_MSFontService,sans-serif" font-weight="900" font-size="275" transform="matrix(1 0 0 1 2069.94 1803)">1</text><path d="M2721 1694C2721 1514.51 2860.69 1369 3033 1369 3205.31 1369 3345 1514.51 3345 1694 3345 1873.49 3205.31 2019 3033 2019 2860.69 2019 2721 1873.49 2721 1694Z" fill="#FF9999" fill-rule="evenodd"/><text fill="#FFFFFF" font-family="Arial Black,Arial Black_MSFontService,sans-serif" font-weight="900" font-size="275" transform="matrix(1 0 0 1 2941.14 1787)">3</text></g></svg>