<svg id="Capa_1" enable-background="new 0 0 512 512" height="512" viewBox="0 0 512 512" width="512" xmlns="http://www.w3.org/2000/svg"><g><path d="m265.712 22c-135.31 0-245 109.69-245 245 0 46.08 12.731 89.183 34.854 126l4.378 1h411.768l4.146-1c22.123-36.817 34.854-79.92 34.854-126 0-135.31-109.691-245-245-245z" fill="#d8ecfe"/><g><g><path d="m247.437 128.861c-.624-.455-1.165-.63-1.603-.457-1.218-3.282-1.834-6.725-1.834-10.25 0-16.279 13.244-29.523 29.523-29.523 3.675 0 7.215.703 10.5 1.961 1.182-4.398 1.818-9.02 1.818-13.792 0-29.365-23.805-53.169-53.169-53.169-7.811 0-15.22 1.698-21.901 4.723-8.915-16.86-26.621-28.354-47.021-28.354s-38.106 11.494-47.022 28.354c-6.68-3.025-14.09-4.723-21.901-4.723-29.365 0-53.169 23.805-53.169 53.169 0 10.594 3.111 20.456 8.451 28.746-27.328 2.215-48.82 25.079-48.82 52.977 0 26.262 19.046 48.062 44.075 52.379-2.383 6.039-3.706 12.612-3.706 19.498 0 29.365 23.805 53.169 53.169 53.169 9.497 0 18.404-2.502 26.12-6.864 9.683 13.119 25.246 21.633 42.803 21.633 7.705 0 15.025-1.641 21.633-4.59-7.944-9.196-12.671-21.161-12.671-34.13 0-26.971 21.041-49.804 47.901-51.981l1.664-.135-.904-1.403c-5.425-8.42-8.292-18.173-8.292-28.204 0-22.513 14.335-41.739 34.356-49.034z" fill="#81b823"/></g><g fill="#78a91f"><path d="m28.242 197.523c0-9.568 4.405-18.104 11.295-23.7-1.455-4.846-2.249-9.979-2.249-15.3 0-20.78 11.927-38.76 29.304-47.501-8.876-10.664.174-18.293 11.177-6.909 1.814-1.877 3.574-3.234 5.21-4.148-3.401-7.002-5.322-14.856-5.322-23.164 0-23.031 14.646-42.637 35.13-50.025-5.613-2.02-11.652-3.144-17.961-3.144-29.365 0-53.169 23.805-53.169 53.169 0 10.594 3.111 20.456 8.451 28.746-27.328 2.215-48.82 25.079-48.82 52.977 0 20.24 11.318 37.82 27.963 46.798-.656-2.49-1.009-5.103-1.009-7.799z"/><path d="m77.658 230.4c0-3.294.311-6.513.887-9.639-5.328 4.54-12.231 7.286-19.78 7.286-6.125 0-11.823-1.811-16.603-4.917-.328 2.377-.504 4.803-.504 7.27 0 29.365 23.805 53.169 53.169 53.169 6.315 0 12.368-1.112 17.985-3.136-20.497-7.381-35.154-26.993-35.154-50.033z"/></g><g fill="#fff"><circle cx="196.262" cy="124.042" r="9.118"/><circle cx="119.058" cy="233.231" r="9.118"/><circle cx="77.769" cy="113.231" r="9.118"/></g><g><path d="m221.373 206.099c-4.204-6.526-6.865-13.853-7.852-21.489l-2.287-2.287c-3.845-3.845-10.079-3.845-13.925 0l-18.79 18.79v-29.79c0-5.438-4.408-9.846-9.846-9.846h-9.846c-5.438 0-9.846 4.408-9.846 9.846v202.261h29.539v-89.983c-3.722-7.209-5.807-15.375-5.807-23.983 0-26.971 21.041-49.804 47.901-51.981l1.664-.135z" fill="#d88a55"/></g><g><path d="m165.901 373.584v-202.261c0-4.189 2.621-7.758 6.309-9.181-1.099-.424-2.288-.666-3.537-.666h-9.846c-5.438 0-9.846 4.408-9.846 9.846v202.261h16.92z" fill="#c57a44"/></g><path d="m208.822 394c.13-.887.22-1.786.22-2.708 0-10.289-8.418-18.708-18.708-18.708h-53.169c-10.289 0-18.708 8.418-18.708 18.708 0 .922.09 1.821.22 2.708z" fill="#f6a96c"/><path d="m144.22 394c-.13-.887-.22-1.786-.22-2.708 0-10.289 8.418-18.708 18.708-18.708h-25.542c-10.289 0-18.708 8.418-18.708 18.708 0 .922.09 1.821.22 2.708z" fill="#ea9b58"/><g><path d="m265.25 125.726c7.467 0 14.696 1.559 21.488 4.634l.856.388.439-.832c3.797-7.18 9.105-13.217 15.409-17.816-2.809-13.957-15.136-24.469-29.92-24.469-16.857 0-30.523 13.666-30.523 30.523 0 4.091.811 7.991 2.271 11.557 6.158-2.564 12.905-3.985 19.98-3.985z" fill="#fe9901"/><path d="m265.25 125.726c.791 0 1.577.027 2.363.062-.63-2.442-.982-4.995-.982-7.634 0-12.668 7.718-23.532 18.708-28.15-3.634-1.527-7.626-2.373-11.815-2.373-16.857 0-30.523 13.666-30.523 30.523 0 4.091.811 7.991 2.271 11.557 6.156-2.564 12.903-3.985 19.978-3.985z" fill="#fb8801"/></g><g><circle cx="58.765" cy="197.523" fill="#fe9901" r="30.523"/><path d="m51.873 197.523c0-12.668 7.718-23.532 18.708-28.15-3.635-1.527-7.626-2.373-11.816-2.373-16.857 0-30.523 13.666-30.523 30.523s13.666 30.523 30.523 30.523c4.189 0 8.181-.846 11.815-2.373-10.989-4.618-18.707-15.482-18.707-28.15z" fill="#fb8801"/></g><g><circle cx="132.765" cy="79.477" fill="#fe9901" r="30.523"/><path d="m125.873 79.477c0-12.668 7.718-23.532 18.708-28.15-3.634-1.527-7.626-2.373-11.815-2.373-16.857 0-30.523 13.666-30.523 30.523s13.665 30.523 30.522 30.523c4.189 0 8.181-.846 11.815-2.373-10.989-4.618-18.707-15.482-18.707-28.15z" fill="#fb8801"/></g></g><g fill="#78a91f"><path d="m347.942 393v103l1 1.496c53.359-19.274 98.106-56.551 126.915-104.496z"/><path d="m320.404 420.018-25.439-25.439-2.993-1.579h-236.407c42.838 71.293 120.917 119 210.146 119 18.446 0 36.413-2.044 53.692-5.909l1-2.091v-83.982z"/></g><g><path d="m496.635 259.618c0-27.899-21.492-50.763-48.82-52.977 5.34-8.29 8.451-18.152 8.451-28.746 0-29.365-23.805-53.169-53.169-53.169-7.811 0-15.22 1.698-21.901 4.723-8.916-16.86-26.623-28.354-47.022-28.354-20.4 0-38.106 11.494-47.022 28.354-6.68-3.025-14.09-4.723-21.901-4.723-29.365 0-53.169 23.805-53.169 53.169 0 10.594 3.111 20.456 8.451 28.746-27.328 2.215-48.82 25.079-48.82 52.977 0 26.262 19.046 48.062 44.075 52.379-2.383 6.039-3.706 12.612-3.706 19.498 0 29.365 23.805 53.169 53.169 53.169 9.497 0 18.404-2.502 26.12-6.864 9.682 13.119 25.246 21.633 42.803 21.633s33.12-8.514 42.803-21.633c7.716 4.362 16.624 6.864 26.12 6.864 29.365 0 53.169-23.805 53.169-53.169 0-6.886-1.323-13.459-3.706-19.498 25.029-4.317 44.075-26.117 44.075-52.379z" fill="#97d729"/><path d="m246.253 340.724c-5.9-5.566-9.588-13.45-9.588-22.201 0-3.375.556-6.619 1.568-9.654-19.443-7.905-33.156-26.969-33.156-49.251 0-25.555 18.033-46.886 42.067-51.992 3.144-.668 4.76-4.142 3.385-7.048-3.256-6.88-5.082-14.567-5.082-22.683 0-23.535 15.297-43.484 36.486-50.484-6.178-2.046-12.853-2.997-19.806-2.595-26.954 1.558-48.69 23.504-49.983 50.472-.555 11.581 2.613 22.386 8.389 31.353-27.328 2.215-48.82 25.079-48.82 52.977 0 26.262 19.046 48.062 44.075 52.379-2.92 7.4-4.249 15.601-3.502 24.197 2.238 25.764 23.13 46.394 48.919 48.319 7.285.544 14.28-.397 20.731-2.533-18.356-6.062-32.282-21.845-35.683-41.256z" fill="#8bc727"/><g fill="#fff"><circle cx="366.685" cy="225.137" r="9.118"/><circle cx="412.865" cy="340.326" r="9.118"/><circle cx="226.85" cy="212.357" r="9.118"/></g><path d="m383.489 303.236-6.962-6.962c-3.845-3.845-10.079-3.845-13.925 0l-13.66 13.66v-37.516c0-5.438-4.408-9.846-9.846-9.846h-9.846c-5.438 0-9.846 4.408-9.846 9.846v233.665c10.095-2.257 19.956-5.133 29.538-8.594v-145.781l34.547-34.547c3.845-3.845 3.845-10.079 0-13.925z" fill="#d88a55"/><path d="m339.096 262.572h-9.846c-5.438 0-9.846 4.408-9.846 9.846v106.24l-11.774-11.774c-3.845-3.845-10.079-3.845-13.925 0l-6.962 6.962c-3.845 3.845-3.845 10.079 0 13.925l32.661 32.661v85.651c5.608-1.254 11.141-2.706 16.596-4.336v-229.329c0-4.25 2.698-7.861 6.471-9.24-1.054-.385-2.187-.606-3.375-.606z" fill="#c57a44"/><g><circle cx="438.542" cy="219.249" fill="#fe9901" r="30.523"/><path d="m431.65 219.249c0-12.668 7.718-23.532 18.708-28.15-3.634-1.527-7.626-2.373-11.815-2.373-16.857 0-30.523 13.666-30.523 30.523s13.666 30.523 30.523 30.523c4.189 0 8.181-.846 11.815-2.373-10.99-4.618-18.708-15.482-18.708-28.15z" fill="#fb8801"/></g><g><circle cx="267.188" cy="318.523" fill="#fe9901" r="30.523"/><path d="m260.296 318.523c0-12.668 7.718-23.532 18.708-28.15-3.634-1.527-7.626-2.373-11.815-2.373-16.857 0-30.523 13.666-30.523 30.523s13.666 30.523 30.523 30.523c4.189 0 8.181-.846 11.815-2.373-10.99-4.618-18.708-15.482-18.708-28.15z" fill="#fb8801"/></g><g><circle cx="298.112" cy="180.572" fill="#fe9901" r="30.523"/><path d="m291.219 180.572c0-12.668 7.718-23.532 18.708-28.15-3.634-1.527-7.626-2.373-11.815-2.373-16.857 0-30.523 13.666-30.523 30.523s13.666 30.523 30.523 30.523c4.189 0 8.181-.846 11.815-2.373-10.99-4.618-18.708-15.482-18.708-28.15z" fill="#fb8801"/></g></g><path d="m154.712 421.5c0-4.142-3.358-7.5-7.5-7.5h-15c-4.142 0-7.5 3.358-7.5 7.5s3.358 7.5 7.5 7.5h15c4.142 0 7.5-3.358 7.5-7.5z" fill="#8bc727"/><path d="m292 436.5c0-4.142-3.358-7.5-7.5-7.5h-15c-4.142 0-7.5 3.358-7.5 7.5s3.358 7.5 7.5 7.5h15c4.142 0 7.5-3.358 7.5-7.5z" fill="#8bc727"/><g fill="#81b823"><path d="m406 421.5c0-4.142-3.358-7.5-7.5-7.5h-15c-4.142 0-7.5 3.358-7.5 7.5s3.358 7.5 7.5 7.5h15c4.142 0 7.5-3.358 7.5-7.5z"/><path d="m209 459.5c0-4.142-3.358-7.5-7.5-7.5h-15c-4.142 0-7.5 3.358-7.5 7.5s3.358 7.5 7.5 7.5h15c4.142 0 7.5-3.358 7.5-7.5z"/></g></g></svg>