<svg width="1500" height="1415" xmlns="http://www.w3.org/2000/svg" xmlns:xlink="http://www.w3.org/1999/xlink" overflow="hidden"><defs><clipPath id="clip0"><rect x="1848" y="625" width="1500" height="1415"/></clipPath></defs><g clip-path="url(#clip0)" transform="translate(-1848 -625)"><path d="M2252.5 953C2252.5 773.231 2391.96 627.5 2564 627.5 2736.04 627.5 2875.5 773.231 2875.5 953 2875.5 1132.77 2736.04 1278.5 2564 1278.5 2391.96 1278.5 2252.5 1132.77 2252.5 953Z" stroke="#660066" stroke-width="4.58333" stroke-miterlimit="8" fill="#660066" fill-rule="evenodd"/><text fill="#FFFFFF" font-family="Arial Black,Arial Black_MSFontService,sans-serif" font-weight="900" font-size="275" transform="matrix(1 0 0 1 2471.84 1046)">3</text><path d="M0 0 308.902 595.773" stroke="#660066" stroke-width="58.4375" stroke-miterlimit="8" fill="#660066" fill-rule="evenodd" transform="matrix(-1 0 0 1 2405.9 1090)"/><path d="M2723 1098 2954.83 1693.77" stroke="#660066" stroke-width="58.4375" stroke-miterlimit="8" fill="#660066" fill-rule="evenodd"/><path d="M1850.5 1710.5C1850.5 1531.01 1989.96 1385.5 2162 1385.5 2334.04 1385.5 2473.5 1531.01 2473.5 1710.5 2473.5 1889.99 2334.04 2035.5 2162 2035.5 1989.96 2035.5 1850.5 1889.99 1850.5 1710.5Z" stroke="#660066" stroke-width="4.58333" stroke-miterlimit="8" fill="#660066" fill-rule="evenodd"/><text fill="#FFFFFF" font-family="Arial Black,Arial Black_MSFontService,sans-serif" font-weight="900" font-size="275" transform="matrix(1 0 0 1 2069.94 1803)">1</text><path d="M2721.5 1694.5C2721.5 1515.01 2861.19 1369.5 3033.5 1369.5 3205.81 1369.5 3345.5 1515.01 3345.5 1694.5 3345.5 1873.99 3205.81 2019.5 3033.5 2019.5 2861.19 2019.5 2721.5 1873.99 2721.5 1694.5Z" stroke="#660066" stroke-width="4.58333" stroke-miterlimit="8" fill="#660066" fill-rule="evenodd"/><text fill="#FFFFFF" font-family="Arial Black,Arial Black_MSFontService,sans-serif" font-weight="900" font-size="275" transform="matrix(1 0 0 1 2941.14 1787)">2</text></g></svg>